<?xml version="1.0" encoding="UTF-8" standalone="no"?>
<svg
   width="600"
   height="300"
   viewBox="0 0 600 300"
   version="1.1"
   id="svg3174"
   sodipodi:docname="202305072edit1.svg"
   inkscape:version="1.2.1 (9c6d41e4, 2022-07-14)"
   xmlns:inkscape="http://www.inkscape.org/namespaces/inkscape"
   xmlns:sodipodi="http://sodipodi.sourceforge.net/DTD/sodipodi-0.dtd"
   xmlns="http://www.w3.org/2000/svg"
   xmlns:svg="http://www.w3.org/2000/svg"
   xmlns:rdf="http://www.w3.org/1999/02/22-rdf-syntax-ns#"
   xmlns:cc="http://creativecommons.org/ns#"
   xmlns:dc="http://purl.org/dc/elements/1.1/">
  <defs
     id="defs3178" />
  <sodipodi:namedview
     id="namedview3176"
     pagecolor="#ffffff"
     bordercolor="#000000"
     borderopacity="0.25"
     inkscape:showpageshadow="2"
     inkscape:pageopacity="0.0"
     inkscape:pagecheckerboard="0"
     inkscape:deskcolor="#d1d1d1"
     showgrid="false"
     inkscape:zoom="1.8755301"
     inkscape:cx="332.97253"
     inkscape:cy="133.02906"
     inkscape:window-width="1390"
     inkscape:window-height="1205"
     inkscape:window-x="0"
     inkscape:window-y="25"
     inkscape:window-maximized="0"
     inkscape:current-layer="gnuplot_canvas" />
  <title
     id="title2914">Gnuplot</title>
  <desc
     id="desc2916">Produced by GNUPLOT 5.4 patchlevel 6 </desc>
  <g
     id="gnuplot_canvas">
    <defs
       id="defs2946" />
    <g
       fill="none"
       color="#ffffff"
       stroke="currentColor"
       stroke-width="1"
       stroke-linecap="butt"
       stroke-linejoin="miter"
       id="g2948" />
    <g
       fill="none"
       color="#000000"
       stroke="currentColor"
       stroke-width="1"
       stroke-linecap="butt"
       stroke-linejoin="miter"
       id="g2958"
       transform="translate(-2.7904955,-180.44198)">
      <path
         stroke="#000000"
         d="m 295.81,463.22 h -9"
         id="path2950" />
      <g
         transform="translate(287.42,467.12)"
         stroke="none"
         fill="#000000"
         font-family="'Times New Roman'"
         font-size="12px"
         text-anchor="end"
         id="g2956">
        <text
           id="text2954"><tspan
             font-family="'Times New Roman'"
             id="tspan2952">-3</tspan></text>
      </g>
    </g>
    <g
       fill="none"
       color="#000000"
       stroke="currentColor"
       stroke-width="1"
       stroke-linecap="butt"
       stroke-linejoin="miter"
       id="g2968"
       transform="translate(-2.7904955,-180.44198)">
      <path
         stroke="#000000"
         d="m 295.81,442.12 h -4.5 m 4.5,-21.1 h -9"
         id="path2960" />
      <g
         transform="translate(287.42,424.92)"
         stroke="none"
         fill="#000000"
         font-family="'Times New Roman'"
         font-size="12px"
         text-anchor="end"
         id="g2966">
        <text
           id="text2964"><tspan
             font-family="'Times New Roman'"
             id="tspan2962">-2</tspan></text>
      </g>
    </g>
    <g
       fill="none"
       color="#000000"
       stroke="currentColor"
       stroke-width="1"
       stroke-linecap="butt"
       stroke-linejoin="miter"
       id="g2978"
       transform="translate(-2.7904955,-180.44198)">
      <path
         stroke="#000000"
         d="m 295.81,399.92 h -4.5 m 4.5,-21.1 h -9"
         id="path2970" />
      <g
         transform="translate(287.42,382.72)"
         stroke="none"
         fill="#000000"
         font-family="'Times New Roman'"
         font-size="12px"
         text-anchor="end"
         id="g2976">
        <text
           id="text2974"><tspan
             font-family="'Times New Roman'"
             id="tspan2972">-1</tspan></text>
      </g>
    </g>
    <g
       fill="none"
       color="#000000"
       stroke="currentColor"
       stroke-width="1"
       stroke-linecap="butt"
       stroke-linejoin="miter"
       id="g2988"
       transform="translate(-2.7904955,-180.44198)">
      <path
         stroke="#000000"
         d="m 295.81,357.72 h -4.5 m 4.5,-21.11 h -9"
         id="path2980" />
      <g
         transform="translate(287.42,340.51)"
         stroke="none"
         fill="#000000"
         font-family="'Times New Roman'"
         font-size="12px"
         text-anchor="end"
         id="g2986" />
    </g>
    <g
       fill="none"
       color="#000000"
       stroke="currentColor"
       stroke-width="1"
       stroke-linecap="butt"
       stroke-linejoin="miter"
       id="g2998"
       transform="translate(-2.7904955,-180.44198)">
      <path
         stroke="#000000"
         d="m 295.81,315.51 h -4.5 m 4.5,-21.1 h -9"
         id="path2990" />
      <g
         transform="translate(287.42,298.31)"
         stroke="none"
         fill="#000000"
         font-family="'Times New Roman'"
         font-size="12px"
         text-anchor="end"
         id="g2996">
        <text
           id="text2994"><tspan
             font-family="'Times New Roman'"
             id="tspan2992">1</tspan></text>
      </g>
    </g>
    <g
       fill="none"
       color="#000000"
       stroke="currentColor"
       stroke-width="1"
       stroke-linecap="butt"
       stroke-linejoin="miter"
       id="g3008"
       transform="translate(-2.7904955,-180.44198)">
      <path
         stroke="#000000"
         d="m 295.81,273.31 h -4.5 m 4.5,-21.1 h -9"
         id="path3000" />
      <g
         transform="translate(287.42,256.11)"
         stroke="none"
         fill="#000000"
         font-family="'Times New Roman'"
         font-size="12px"
         text-anchor="end"
         id="g3006">
        <text
           id="text3004"><tspan
             font-family="'Times New Roman'"
             id="tspan3002">2</tspan></text>
      </g>
    </g>
    <g
       fill="none"
       color="#000000"
       stroke="currentColor"
       stroke-width="1"
       stroke-linecap="butt"
       stroke-linejoin="miter"
       id="g3018"
       transform="translate(-2.7904955,-180.44198)">
      <path
         stroke="#000000"
         d="m 295.81,231.11 h -4.5 m 4.5,-21.1 h -9"
         id="path3010" />
      <g
         transform="translate(287.42,213.91)"
         stroke="none"
         fill="#000000"
         font-family="'Times New Roman'"
         font-size="12px"
         text-anchor="end"
         id="g3016">
        <text
           id="text3014"><tspan
             font-family="'Times New Roman'"
             id="tspan3012">3</tspan></text>
      </g>
    </g>
    <g
       fill="none"
       color="#000000"
       stroke="currentColor"
       stroke-width="1"
       stroke-linecap="butt"
       stroke-linejoin="miter"
       id="g3028"
       transform="translate(-2.7904955,-180.44198)">
      <path
         stroke="#000000"
         d="m 20.97,336.61 v 9"
         id="path3020" />
      <g
         transform="translate(20.97,367.51)"
         stroke="none"
         fill="#000000"
         font-family="'Times New Roman'"
         font-size="12px"
         text-anchor="middle"
         id="g3026">
        <text
           id="text3024"><tspan
             font-family="'Times New Roman'"
             id="tspan3022">-2$\pi$</tspan></text>
      </g>
    </g>
    <g
       fill="none"
       color="#000000"
       stroke="currentColor"
       stroke-width="1"
       stroke-linecap="butt"
       stroke-linejoin="miter"
       id="g3038"
       transform="translate(-2.7904955,-180.44198)">
      <path
         stroke="#000000"
         d="m 89.68,336.61 v 4.5 m 68.71,-4.5 v 9"
         id="path3030" />
      <g
         transform="translate(158.39,367.51)"
         stroke="none"
         fill="#000000"
         font-family="'Times New Roman'"
         font-size="12px"
         text-anchor="middle"
         id="g3036">
        <text
           id="text3034"><tspan
             font-family="'Times New Roman'"
             id="tspan3032">-$\pi$</tspan></text>
      </g>
    </g>
    <g
       fill="none"
       color="#000000"
       stroke="currentColor"
       stroke-width="1"
       stroke-linecap="butt"
       stroke-linejoin="miter"
       id="g3048"
       transform="translate(-2.7904955,-180.44198)">
      <path
         stroke="#000000"
         d="m 227.1,336.61 v 4.5 m 68.71,-4.5 v 9"
         id="path3040" />
      <g
         transform="translate(295.81,367.51)"
         stroke="none"
         fill="#000000"
         font-family="'Times New Roman'"
         font-size="12px"
         text-anchor="middle"
         id="g3046" />
    </g>
    <g
       fill="none"
       color="#000000"
       stroke="currentColor"
       stroke-width="1"
       stroke-linecap="butt"
       stroke-linejoin="miter"
       id="g3058"
       transform="translate(-2.7904955,-180.44198)">
      <path
         stroke="#000000"
         d="m 364.51,336.61 v 4.5 m 68.71,-4.5 v 9"
         id="path3050" />
      <g
         transform="translate(433.22,367.51)"
         stroke="none"
         fill="#000000"
         font-family="'Times New Roman'"
         font-size="12px"
         text-anchor="middle"
         id="g3056">
        <text
           id="text3054"><tspan
             font-family="'Times New Roman'"
             id="tspan3052">$\pi$</tspan></text>
      </g>
    </g>
    <g
       fill="none"
       color="#000000"
       stroke="currentColor"
       stroke-width="1"
       stroke-linecap="butt"
       stroke-linejoin="miter"
       id="g3068"
       transform="translate(-2.7904955,-180.44198)">
      <path
         stroke="#000000"
         d="m 501.93,336.61 v 4.5 m 68.71,-4.5 v 9"
         id="path3060" />
      <g
         transform="translate(570.64,367.51)"
         stroke="none"
         fill="#000000"
         font-family="'Times New Roman'"
         font-size="12px"
         text-anchor="middle"
         id="g3066">
        <text
           id="text3064"><tspan
             font-family="'Times New Roman'"
             id="tspan3062">2$\pi$</tspan></text>
      </g>
    </g>
    <g
       fill="none"
       color="#000000"
       stroke="currentColor"
       stroke-width="1"
       stroke-linecap="butt"
       stroke-linejoin="miter"
       id="g3070" />
    <g
       fill="none"
       color="#000000"
       stroke="currentColor"
       stroke-width="1"
       stroke-linecap="butt"
       stroke-linejoin="miter"
       id="g3074"
       transform="translate(-2.7904955,-180.44198)">
      <path
         stroke="#000000"
         d="M 20.97,336.61 H 570.64"
         id="path3072" />
    </g>
    <g
       fill="none"
       color="#000000"
       stroke="currentColor"
       stroke-width="1"
       stroke-linecap="butt"
       stroke-linejoin="miter"
       id="g3090"
       transform="translate(-2.7904955,-180.44198)">
      <path
         stroke="#000000"
         d="M 295.81,463.22 V 210.01"
         id="path3076" />
      <g
         transform="translate(584.38,331.1)"
         stroke="none"
         fill="#000000"
         font-family="'Times New Roman'"
         font-size="22px"
         text-anchor="middle"
         id="g3082">
        <text
           id="text3080"
           style="font-size:16px"
           y="-2">$x$</text>
      </g>
      <g
         transform="translate(308.93,210.83)"
         stroke="none"
         fill="#000000"
         font-family="'Times New Roman'"
         font-size="22px"
         text-anchor="middle"
         id="g3088">
        <text
           id="text3086"
           style="font-size:16px">$y$</text>
        <text
           id="text3086-5"
           style="font-size:16px"
           x="-22.049492"
           y="148.50926">$O$</text>
      </g>
    </g>
    <g
       fill="none"
       color="#000000"
       stroke="currentColor"
       stroke-width="1"
       stroke-linecap="butt"
       stroke-linejoin="miter"
       id="g3100"
       transform="translate(-2.7904955,-180.44198)">
      <g
         stroke="none"
         shape-rendering="crispEdges"
         id="g3094">
        <polygon
           fill="#000000"
           points="291.17,221.04 295.82,203.67 300.47,221.04 295.82,216.39 "
           id="polygon3092" />
      </g>
      <path
         stroke="#000000"
         d="m 295.82,216.39 -4.65,4.65 4.65,-17.37 4.65,17.37 z"
         id="path3096" />
      <path
         stroke="#000000"
         d="M 295.82,465.74 V 216.39"
         id="path3098" />
    </g>
    <g
       fill="none"
       color="#000000"
       stroke="currentColor"
       stroke-width="1"
       stroke-linecap="butt"
       stroke-linejoin="miter"
       id="g3110"
       transform="translate(-2.7904955,-180.44198)">
      <g
         stroke="none"
         shape-rendering="crispEdges"
         id="g3104">
        <polygon
           fill="#000000"
           points="567.02,331.95 584.39,336.6 567.02,341.25 571.67,336.6 "
           id="polygon3102" />
      </g>
      <path
         stroke="#000000"
         d="m 571.67,336.6 -4.65,-4.65 17.37,4.65 -17.37,4.65 z"
         id="path3106" />
      <path
         stroke="#000000"
         d="M 15.48,336.6 H 571.67"
         id="path3108" />
    </g>
    <g
       fill="none"
       color="#000000"
       stroke="currentColor"
       stroke-width="1"
       stroke-linecap="butt"
       stroke-linejoin="miter"
       id="g3112" />
    <g
       id="gnuplot_plot_1"
       transform="translate(-2.7904955,-180.44198)">
      <title
         id="title3114">f(x)</title>
      <g
         fill="none"
         color="#ffffff"
         stroke="#000000"
         stroke-width="2"
         stroke-linecap="butt"
         stroke-linejoin="miter"
         id="g3116" />
      <g
         fill="none"
         color="#000000"
         stroke="currentColor"
         stroke-width="2"
         stroke-linecap="butt"
         stroke-linejoin="miter"
         id="g3122">
        <g
           transform="translate(502.91,231.91)"
           stroke="none"
           fill="#000000"
           font-family="'Times New Roman'"
           font-size="12px"
           text-anchor="end"
           id="g3120">
          <text
             id="text3118">$y=\sin x$</text>
        </g>
      </g>
      <g
         fill="none"
         color="#000000"
         stroke="currentColor"
         stroke-width="2"
         stroke-linecap="butt"
         stroke-linejoin="miter"
         id="g3126">
        <path
           stroke="#0000ff"
           d="m 511.3,228.01 h 42.56 m -532.89,108.6 0.55,-0.53 0.55,-0.53 0.55,-0.53 0.55,-0.53 0.55,-0.53 0.55,-0.53 0.55,-0.53 0.55,-0.52 0.55,-0.53 0.55,-0.53 0.55,-0.53 0.55,-0.52 0.55,-0.53 0.55,-0.52 0.55,-0.52 0.55,-0.52 0.55,-0.52 0.55,-0.52 0.55,-0.52 0.55,-0.51 0.55,-0.51 0.55,-0.52 0.56,-0.5 0.55,-0.51 0.55,-0.51 0.55,-0.5 0.55,-0.5 0.55,-0.5 0.55,-0.5 0.55,-0.5 0.55,-0.49 0.55,-0.49 0.55,-0.48 0.55,-0.49 0.55,-0.48 0.55,-0.48 0.55,-0.48 0.55,-0.47 0.55,-0.47 0.55,-0.46 0.55,-0.47 0.55,-0.46 0.55,-0.45 0.55,-0.46 0.55,-0.45 0.55,-0.44 0.55,-0.45 0.55,-0.44 0.55,-0.43 0.55,-0.43 0.55,-0.43 0.55,-0.42 0.55,-0.42 0.55,-0.42 0.55,-0.41 0.55,-0.4 0.55,-0.41 0.55,-0.39 0.55,-0.4 0.55,-0.39 0.55,-0.38 0.55,-0.38 0.55,-0.38 0.55,-0.37 0.55,-0.36 0.55,-0.36 0.55,-0.36 0.55,-0.35 0.56,-0.35 0.55,-0.34 0.55,-0.33 0.55,-0.33 0.55,-0.33 0.55,-0.32 0.55,-0.31 0.55,-0.31 0.55,-0.3 0.55,-0.3 0.55,-0.29 0.55,-0.29 0.55,-0.28 0.55,-0.28 0.55,-0.27 0.55,-0.26 0.55,-0.26 0.55,-0.25 0.55,-0.25 0.55,-0.24 0.55,-0.23 0.55,-0.23 0.55,-0.22 0.55,-0.22 0.55,-0.21 0.55,-0.2 0.55,-0.2 0.55,-0.19 0.55,-0.19 0.55,-0.18 0.55,-0.17 0.55,-0.17 0.55,-0.16 0.55,-0.15 0.55,-0.15 0.55,-0.14 0.55,-0.13 0.55,-0.13 0.55,-0.12 0.55,-0.12 0.55,-0.11 0.55,-0.1 0.55,-0.1 0.55,-0.08 0.55,-0.09 0.56,-0.07 0.55,-0.07 0.55,-0.06 0.55,-0.06 0.55,-0.05 0.55,-0.04 0.55,-0.04 0.55,-0.03 0.55,-0.02 0.55,-0.01 0.55,-0.01 0.55,-0.01 0.55,0.01 0.55,0.01 0.55,0.02 0.55,0.02 0.55,0.03 0.55,0.04 0.55,0.04 0.55,0.05 0.55,0.06 0.55,0.07 0.55,0.07 0.55,0.07 0.55,0.09 0.55,0.09 0.55,0.09 0.55,0.11 0.55,0.11 0.55,0.12 0.55,0.12 0.55,0.13 0.55,0.13 0.55,0.15 0.55,0.15 0.55,0.15 0.55,0.16 0.55,0.17 0.55,0.18 0.55,0.18 0.55,0.18 0.55,0.2 0.55,0.2 0.55,0.2 0.55,0.21 0.56,0.22 0.55,0.23 0.55,0.23 0.55,0.23 0.55,0.24 0.55,0.25 0.55,0.26 0.55,0.26 0.55,0.26 0.55,0.27 0.55,0.28 0.55,0.28 0.55,0.29 0.55,0.29 0.55,0.3 0.55,0.31 0.55,0.31 0.55,0.31 0.55,0.32 0.55,0.33 0.55,0.33 0.55,0.34 0.55,0.34 0.55,0.35 0.55,0.35 0.55,0.36 0.55,0.36 0.55,0.37 0.55,0.37 0.55,0.37 0.55,0.38 0.55,0.39 0.55,0.39 0.55,0.39 0.55,0.4 0.55,0.41 0.55,0.4 0.55,0.42 0.55,0.41 0.55,0.42 0.55,0.43 0.55,0.43 0.55,0.43 0.55,0.43 0.55,0.44 0.55,0.45 0.56,0.44 0.55,0.45 0.55,0.46 0.55,0.46 0.55,0.46 0.55,0.46 0.55,0.47 0.55,0.47 0.55,0.47 0.55,0.48 0.55,0.48 0.55,0.48 0.55,0.49 0.55,0.48 0.55,0.5 0.55,0.49 0.55,0.49 0.55,0.5 0.55,0.5 0.55,0.5 0.55,0.51 0.55,0.5 0.55,0.51 0.55,0.51 0.55,0.51 0.55,0.52 0.55,0.51 0.55,0.52 0.55,0.52 0.55,0.52 0.55,0.52 0.55,0.52 0.55,0.53 0.55,0.52 0.55,0.53 0.55,0.52 0.55,0.53 0.55,0.53 0.55,0.53 0.55,0.53 0.55,0.52 0.55,0.54 0.55,0.53 0.55,0.53 0.55,0.53 0.56,0.53 0.55,0.53 0.55,0.53 0.55,0.53 0.55,0.53 0.55,0.53 0.55,0.53 0.55,0.53 0.55,0.53 0.55,0.52 0.55,0.53 0.55,0.53 0.55,0.52 0.55,0.53 0.55,0.52 0.55,0.52 0.55,0.52 0.55,0.52 0.55,0.52 0.55,0.51 0.55,0.52 0.55,0.51 0.55,0.51 0.55,0.51 0.55,0.51 0.55,0.5 0.55,0.51 0.55,0.5 0.55,0.5 0.55,0.49 0.55,0.5 0.55,0.49 0.55,0.49 0.55,0.49 0.55,0.48 0.55,0.48 0.55,0.48 0.55,0.47 0.55,0.48 0.55,0.46 0.55,0.47 0.55,0.46 0.55,0.46 0.55,0.46 0.55,0.45 0.55,0.45 0.56,0.45 0.55,0.44 0.55,0.43 0.55,0.44 0.55,0.43 0.55,0.43 0.55,0.42 0.55,0.42 0.55,0.41 0.55,0.41 0.55,0.41 0.55,0.4 0.55,0.39 0.55,0.4 0.55,0.38 0.55,0.39 0.55,0.38 0.55,0.37 0.55,0.37 0.55,0.36 0.55,0.36 0.55,0.36 0.55,0.35 0.55,0.34 0.55,0.34 0.55,0.33 0.55,0.33 0.55,0.33 0.55,0.32 0.55,0.31 0.55,0.31 0.55,0.3 0.55,0.29 0.55,0.3 0.55,0.28 0.55,0.28 0.55,0.27 0.55,0.27 0.55,0.27 0.55,0.25 0.55,0.25 0.55,0.25 0.55,0.24 0.55,0.23 0.55,0.23 0.56,0.22 0.55,0.21 0.55,0.21 0.55,0.2 0.55,0.2 0.55,0.19 0.55,0.18 0.55,0.18 0.55,0.17 0.55,0.17 0.55,0.16 0.55,0.15 0.55,0.14 0.55,0.14 0.55,0.14 0.55,0.12 0.55,0.12 0.55,0.12 0.55,0.1 0.55,0.1 0.55,0.1 0.55,0.09 0.55,0.08 0.55,0.07 0.55,0.07 0.55,0.06 0.55,0.05 0.55,0.05 0.55,0.04 0.55,0.04 0.55,0.02 0.55,0.02 0.55,0.02 0.55,0.01 h 0.55 l 0.55,-0.01 0.55,-0.01 0.55,-0.02 0.55,-0.03 0.55,-0.03 0.55,-0.04 0.55,-0.04 0.55,-0.06 0.55,-0.06 0.55,-0.06 0.56,-0.07 0.55,-0.08 0.55,-0.09 0.55,-0.09 0.55,-0.1 0.55,-0.11 0.55,-0.11 0.55,-0.12 0.55,-0.12 0.55,-0.13 0.55,-0.14 0.55,-0.14 0.55,-0.15 0.55,-0.16 0.55,-0.16 0.55,-0.17 0.55,-0.18 0.55,-0.18 0.55,-0.19 0.55,-0.2 0.55,-0.2 0.55,-0.2 0.55,-0.22 0.55,-0.22 0.55,-0.22 0.55,-0.23 0.55,-0.24 0.55,-0.25 0.55,-0.24 0.55,-0.26 0.55,-0.26 0.55,-0.27 0.55,-0.27 0.55,-0.28 0.55,-0.28 0.55,-0.29 0.55,-0.3 0.55,-0.3 0.55,-0.3 0.55,-0.32 0.55,-0.31 0.55,-0.33 0.55,-0.32 0.55,-0.34 0.55,-0.33 0.55,-0.35 0.56,-0.35 0.55,-0.35 0.55,-0.36 0.55,-0.36 0.55,-0.37 0.55,-0.37 0.55,-0.38 0.55,-0.38 0.55,-0.39 0.55,-0.39 0.55,-0.39 0.55,-0.4 0.55,-0.41 0.55,-0.41 0.55,-0.41 0.55,-0.42 0.55,-0.42 0.55,-0.42 0.55,-0.43 0.55,-0.44 0.55,-0.43 0.55,-0.44 0.55,-0.45 0.55,-0.45 0.55,-0.45 0.55,-0.45 0.55,-0.46 0.55,-0.46 0.55,-0.47 0.55,-0.47 0.55,-0.47 0.55,-0.47 0.55,-0.48 0.55,-0.48 0.55,-0.48 0.55,-0.49 0.55,-0.49 0.55,-0.49 0.55,-0.49 0.55,-0.5 0.55,-0.5 0.55,-0.5 0.55,-0.5 0.55,-0.5 0.55,-0.51 0.56,-0.51 0.55,-0.51 0.55,-0.51 0.55,-0.52 0.55,-0.51 0.55,-0.52 0.55,-0.52 0.55,-0.52 0.55,-0.52 0.55,-0.52 0.55,-0.53 0.55,-0.52 0.55,-0.53 0.55,-0.52 0.55,-0.53 0.55,-0.53 0.55,-0.53 0.55,-0.53 0.55,-0.53 0.55,-0.53 0.55,-0.53 0.55,-0.53 0.55,-0.53 0.55,-0.53 0.55,-0.53 0.55,-0.53 0.55,-0.53 0.55,-0.53 0.55,-0.53 0.55,-0.53 0.55,-0.53 0.55,-0.53 0.55,-0.53 0.55,-0.52 0.55,-0.53 0.55,-0.52 0.55,-0.53 0.55,-0.52 0.55,-0.52 0.55,-0.52 0.55,-0.52 0.55,-0.52 0.55,-0.51 0.55,-0.52 0.55,-0.51 0.55,-0.51 0.56,-0.51 0.55,-0.51 0.55,-0.5 0.55,-0.5 0.55,-0.5 0.55,-0.5 0.55,-0.5 0.55,-0.49 0.55,-0.49 0.55,-0.49 0.55,-0.49 0.55,-0.48 0.55,-0.48 0.55,-0.48 0.55,-0.47 0.55,-0.47 0.55,-0.47 0.55,-0.47 0.55,-0.46 0.55,-0.46 0.55,-0.45 0.55,-0.45 0.55,-0.45 0.55,-0.45 0.55,-0.44 0.55,-0.43 0.55,-0.44 0.55,-0.43 0.55,-0.42 0.55,-0.42 0.55,-0.42 0.55,-0.41 0.55,-0.41 0.55,-0.41 0.55,-0.4 0.55,-0.39 0.55,-0.39 0.55,-0.39 0.55,-0.38 0.55,-0.38 0.55,-0.37 0.55,-0.37 0.55,-0.36 0.55,-0.36 0.55,-0.35 0.56,-0.35 0.55,-0.35 0.55,-0.33 0.55,-0.34 0.55,-0.32 0.55,-0.33 0.55,-0.31 0.55,-0.32 0.55,-0.3 0.55,-0.3 0.55,-0.3 0.55,-0.29 0.55,-0.28 0.55,-0.28 0.55,-0.27 0.55,-0.27 0.55,-0.26 0.55,-0.26 0.55,-0.24 0.55,-0.25 0.55,-0.24 0.55,-0.23 0.55,-0.22 0.55,-0.22 0.55,-0.22 0.55,-0.2 0.55,-0.2 0.55,-0.2 0.55,-0.19 0.55,-0.18 0.55,-0.18 0.55,-0.17 0.55,-0.16 0.55,-0.16 0.55,-0.15 0.55,-0.14 0.55,-0.14 0.55,-0.13 0.55,-0.12 0.55,-0.12 0.55,-0.11 0.55,-0.11 0.55,-0.1 0.55,-0.09 0.55,-0.09 0.55,-0.08 0.56,-0.07 0.55,-0.06 0.55,-0.06 0.55,-0.06 0.55,-0.04 0.55,-0.04 0.55,-0.03 0.55,-0.03 0.55,-0.02 0.55,-0.01 0.55,-0.01 h 0.55 l 0.55,0.01 0.55,0.02 0.55,0.02 0.55,0.02 0.55,0.04 0.55,0.04 0.55,0.05 0.55,0.05 0.55,0.06 0.55,0.07 0.55,0.07 0.55,0.08 0.55,0.09 0.55,0.1 0.55,0.1 0.55,0.1 0.55,0.12 0.55,0.12 0.55,0.12 0.55,0.14 0.55,0.14 0.55,0.14 0.55,0.15 0.55,0.16 0.55,0.17 0.55,0.17 0.55,0.18 0.55,0.18 0.55,0.19 0.55,0.2 0.55,0.2 0.55,0.21 0.55,0.21 0.56,0.22 0.55,0.23 0.55,0.23 0.55,0.24 0.55,0.25 0.55,0.25 0.55,0.25 0.55,0.27 0.55,0.27 0.55,0.27 0.55,0.28 0.55,0.28 0.55,0.3 0.55,0.29 0.55,0.3 0.55,0.31 0.55,0.31 0.55,0.32 0.55,0.33 0.55,0.33 0.55,0.33 0.55,0.34 0.55,0.34 0.55,0.35 0.55,0.36 0.55,0.36 0.55,0.36 0.55,0.37 0.55,0.37 0.55,0.38 0.55,0.39 0.55,0.38 0.55,0.4 0.55,0.39 0.55,0.4 0.55,0.41 0.55,0.41 0.55,0.41 0.55,0.42 0.55,0.42 0.55,0.43 0.55,0.43 0.55,0.44 0.55,0.43 0.55,0.44 0.56,0.45 0.55,0.45 0.55,0.45 0.55,0.46 0.55,0.46 0.55,0.46 0.55,0.47 0.55,0.46 0.55,0.48 0.55,0.47 0.55,0.48 0.55,0.48 0.55,0.48 0.55,0.49 0.55,0.49 0.55,0.49 0.55,0.5 0.55,0.49 0.55,0.5 0.55,0.5 0.55,0.51 0.55,0.5 0.55,0.51 0.55,0.51 0.55,0.51 0.55,0.51 0.55,0.52 0.55,0.51 0.55,0.52 0.55,0.52 0.55,0.52 0.55,0.52 0.55,0.52 0.55,0.53 0.55,0.52 0.55,0.53 0.55,0.53 0.55,0.52 0.55,0.53 0.55,0.53 0.55,0.53 0.55,0.53 0.55,0.53 0.55,0.53 0.55,0.53 0.55,0.53 0.56,0.53 0.55,0.53 0.55,0.53 0.55,0.53 0.55,0.54 0.55,0.52 0.55,0.53 0.55,0.53 0.55,0.53 0.55,0.53 0.55,0.52 0.55,0.53 0.55,0.52 0.55,0.53 0.55,0.52 0.55,0.52 0.55,0.52 0.55,0.52 0.55,0.52 0.55,0.51 0.55,0.52 0.55,0.51 0.55,0.51 0.55,0.51 0.55,0.5 0.55,0.51 0.55,0.5 0.55,0.5 0.55,0.5 0.55,0.49 0.55,0.49 0.55,0.5 0.55,0.48 0.55,0.49 0.55,0.48 0.55,0.48 0.55,0.48 0.55,0.47 0.55,0.47 0.55,0.47 0.55,0.46 0.55,0.46 0.55,0.46 0.55,0.46 0.55,0.45 0.56,0.44 0.55,0.45 0.55,0.44 0.55,0.43 0.55,0.43 0.55,0.43 0.55,0.43 0.55,0.42 0.55,0.41 0.55,0.42 0.55,0.4 0.55,0.41 0.55,0.4 0.55,0.39 0.55,0.39 0.55,0.39 0.55,0.38 0.55,0.37 0.55,0.37 0.55,0.37 0.55,0.36 0.55,0.36 0.55,0.35 0.55,0.35 0.55,0.34 0.55,0.34 0.55,0.33 0.55,0.33 0.55,0.32 0.55,0.31 0.55,0.31 0.55,0.31 0.55,0.3 0.55,0.29 0.55,0.29 0.55,0.28 0.55,0.28 0.55,0.27 0.55,0.26 0.55,0.26 0.55,0.26 0.55,0.25 0.55,0.24 0.55,0.23 0.55,0.23 0.55,0.23 0.56,0.22 0.55,0.21 0.55,0.2 0.55,0.2 0.55,0.2 0.55,0.18 0.55,0.18 0.55,0.18 0.55,0.17 0.55,0.16 0.55,0.15 0.55,0.15 0.55,0.15 0.55,0.13 0.55,0.13 0.55,0.12 0.55,0.12 0.55,0.11 0.55,0.11 0.55,0.09 0.55,0.09 0.55,0.09 0.55,0.07 0.55,0.07 0.55,0.07 0.55,0.06 0.55,0.05 0.55,0.04 0.55,0.04 0.55,0.03 0.55,0.02 0.55,0.02 0.55,0.01 0.55,0.01 0.55,-0.01 0.55,-0.01 0.55,-0.01 0.55,-0.02 0.55,-0.03 0.55,-0.04 0.55,-0.04 0.55,-0.05 0.55,-0.06 0.55,-0.06 0.55,-0.07 0.56,-0.07 0.55,-0.09 0.55,-0.08 0.55,-0.1 0.55,-0.1 0.55,-0.11 0.55,-0.12 0.55,-0.12 0.55,-0.13 0.55,-0.13 0.55,-0.14 0.55,-0.15 0.55,-0.15 0.55,-0.16 0.55,-0.17 0.55,-0.17 0.55,-0.18 0.55,-0.19 0.55,-0.19 0.55,-0.2 0.55,-0.2 0.55,-0.21 0.55,-0.22 0.55,-0.22 0.55,-0.23 0.55,-0.23 0.55,-0.24 0.55,-0.25 0.55,-0.25 0.55,-0.26 0.55,-0.26 0.55,-0.27 0.55,-0.28 0.55,-0.28 0.55,-0.29 0.55,-0.29 0.55,-0.3 0.55,-0.3 0.55,-0.31 0.55,-0.31 0.55,-0.32 0.55,-0.33 0.55,-0.33 0.55,-0.33 0.55,-0.34 0.56,-0.35 0.55,-0.35 0.55,-0.36 0.55,-0.36 0.55,-0.36 0.55,-0.37 0.55,-0.38 0.55,-0.38 0.55,-0.38 0.55,-0.39 0.55,-0.4 0.55,-0.39 0.55,-0.41 0.55,-0.4 0.55,-0.41 0.55,-0.42 0.55,-0.42 0.55,-0.42 0.55,-0.43 0.55,-0.43 0.55,-0.43 0.55,-0.44 0.55,-0.45 0.55,-0.44 0.55,-0.45 0.55,-0.46 0.55,-0.45 0.55,-0.46 0.55,-0.47 0.55,-0.46 0.55,-0.47 0.55,-0.47 0.55,-0.48 0.55,-0.48 0.55,-0.48 0.55,-0.49 0.55,-0.48 0.55,-0.49 0.55,-0.49 0.55,-0.5 0.55,-0.5 0.55,-0.5 0.55,-0.5 0.55,-0.5 0.55,-0.51 0.55,-0.51 0.56,-0.5 0.55,-0.52 0.55,-0.51 0.55,-0.51 0.55,-0.52 0.55,-0.52 0.55,-0.52 0.55,-0.52 0.55,-0.52 0.55,-0.52 0.55,-0.53 0.55,-0.52 0.55,-0.53 0.55,-0.53 0.55,-0.53 0.55,-0.52 0.55,-0.53 0.55,-0.53 0.55,-0.53 0.55,-0.53 0.55,-0.53 0.55,-0.53 0.55,-0.53"
           id="path3124" />
      </g>
    </g>
    <g
       id="gnuplot_plot_2"
       transform="translate(-2.7904955,-180.44198)">
      <title
         id="title3129">g(x)</title>
      <g
         fill="none"
         color="#000000"
         stroke="currentColor"
         stroke-width="2"
         stroke-linecap="butt"
         stroke-linejoin="miter"
         id="g3135">
        <g
           transform="translate(502.91,249.91)"
           stroke="none"
           fill="#000000"
           font-family="'Times New Roman'"
           font-size="12px"
           text-anchor="end"
           id="g3133">
          <text
             id="text3131">$y=\cos x$</text>
        </g>
      </g>
      <g
         fill="none"
         color="#000000"
         stroke="currentColor"
         stroke-width="2"
         stroke-linecap="butt"
         stroke-linejoin="miter"
         id="g3139">
        <path
           stroke="#ffa500"
           d="m 511.3,246.01 h 42.56 m -532.89,48.4 0.55,0.01 0.55,0.01 0.55,0.01 0.55,0.03 0.55,0.03 0.55,0.03 0.55,0.05 0.55,0.05 0.55,0.05 0.55,0.07 0.55,0.07 0.55,0.07 0.55,0.09 0.55,0.09 0.55,0.09 0.55,0.11 0.55,0.1 0.55,0.12 0.55,0.12 0.55,0.13 0.55,0.14 0.55,0.14 0.56,0.15 0.55,0.15 0.55,0.16 0.55,0.17 0.55,0.17 0.55,0.18 0.55,0.19 0.55,0.19 0.55,0.2 0.55,0.21 0.55,0.21 0.55,0.21 0.55,0.23 0.55,0.23 0.55,0.23 0.55,0.24 0.55,0.25 0.55,0.25 0.55,0.26 0.55,0.27 0.55,0.27 0.55,0.27 0.55,0.29 0.55,0.28 0.55,0.3 0.55,0.3 0.55,0.3 0.55,0.31 0.55,0.31 0.55,0.32 0.55,0.33 0.55,0.33 0.55,0.34 0.55,0.34 0.55,0.34 0.55,0.36 0.55,0.35 0.55,0.36 0.55,0.37 0.55,0.37 0.55,0.38 0.55,0.38 0.55,0.38 0.55,0.39 0.55,0.39 0.55,0.4 0.56,0.41 0.55,0.4 0.55,0.41 0.55,0.42 0.55,0.42 0.55,0.42 0.55,0.43 0.55,0.43 0.55,0.44 0.55,0.44 0.55,0.44 0.55,0.45 0.55,0.45 0.55,0.45 0.55,0.46 0.55,0.46 0.55,0.46 0.55,0.47 0.55,0.47 0.55,0.47 0.55,0.48 0.55,0.48 0.55,0.48 0.55,0.49 0.55,0.48 0.55,0.49 0.55,0.5 0.55,0.49 0.55,0.5 0.55,0.5 0.55,0.5 0.55,0.5 0.55,0.51 0.55,0.51 0.55,0.51 0.55,0.51 0.55,0.51 0.55,0.52 0.55,0.52 0.55,0.51 0.55,0.52 0.55,0.52 0.55,0.53 0.55,0.52 0.55,0.52 0.56,0.53 0.55,0.53 0.55,0.52 0.55,0.53 0.55,0.53 0.55,0.53 0.55,0.53 0.55,0.53 0.55,0.53 0.55,0.53 0.55,0.53 0.55,0.53 0.55,0.53 0.55,0.53 0.55,0.53 0.55,0.53 0.55,0.53 0.55,0.53 0.55,0.53 0.55,0.53 0.55,0.53 0.55,0.53 0.55,0.52 0.55,0.53 0.55,0.52 0.55,0.52 0.55,0.53 0.55,0.52 0.55,0.52 0.55,0.51 0.55,0.52 0.55,0.51 0.55,0.52 0.55,0.51 0.55,0.51 0.55,0.51 0.55,0.5 0.55,0.51 0.55,0.5 0.55,0.5 0.55,0.49 0.55,0.5 0.55,0.49 0.55,0.49 0.55,0.49 0.56,0.48 0.55,0.48 0.55,0.48 0.55,0.47 0.55,0.48 0.55,0.47 0.55,0.46 0.55,0.47 0.55,0.46 0.55,0.45 0.55,0.45 0.55,0.45 0.55,0.45 0.55,0.44 0.55,0.44 0.55,0.43 0.55,0.44 0.55,0.42 0.55,0.43 0.55,0.41 0.55,0.42 0.55,0.41 0.55,0.41 0.55,0.4 0.55,0.39 0.55,0.4 0.55,0.39 0.55,0.38 0.55,0.38 0.55,0.37 0.55,0.37 0.55,0.37 0.55,0.36 0.55,0.35 0.55,0.35 0.55,0.35 0.55,0.34 0.55,0.33 0.55,0.33 0.55,0.33 0.55,0.32 0.55,0.31 0.55,0.31 0.55,0.3 0.55,0.3 0.55,0.29 0.56,0.29 0.55,0.28 0.55,0.27 0.55,0.27 0.55,0.26 0.55,0.26 0.55,0.25 0.55,0.25 0.55,0.24 0.55,0.23 0.55,0.23 0.55,0.22 0.55,0.22 0.55,0.21 0.55,0.2 0.55,0.2 0.55,0.19 0.55,0.18 0.55,0.18 0.55,0.17 0.55,0.17 0.55,0.16 0.55,0.15 0.55,0.15 0.55,0.14 0.55,0.13 0.55,0.13 0.55,0.12 0.55,0.11 0.55,0.11 0.55,0.1 0.55,0.1 0.55,0.09 0.55,0.08 0.55,0.07 0.55,0.07 0.55,0.06 0.55,0.06 0.55,0.04 0.55,0.05 0.55,0.03 0.55,0.03 0.55,0.02 0.55,0.02 h 0.55 l 0.56,0.01 0.55,-0.01 0.55,-0.01 0.55,-0.02 0.55,-0.02 0.55,-0.04 0.55,-0.03 0.55,-0.05 0.55,-0.05 0.55,-0.06 0.55,-0.06 0.55,-0.08 0.55,-0.07 0.55,-0.09 0.55,-0.09 0.55,-0.1 0.55,-0.1 0.55,-0.11 0.55,-0.12 0.55,-0.12 0.55,-0.14 0.55,-0.13 0.55,-0.15 0.55,-0.15 0.55,-0.15 0.55,-0.16 0.55,-0.17 0.55,-0.18 0.55,-0.18 0.55,-0.19 0.55,-0.19 0.55,-0.2 0.55,-0.21 0.55,-0.21 0.55,-0.22 0.55,-0.22 0.55,-0.24 0.55,-0.23 0.55,-0.24 0.55,-0.25 0.55,-0.26 0.55,-0.26 0.55,-0.26 0.55,-0.28 0.55,-0.27 0.55,-0.29 0.56,-0.29 0.55,-0.29 0.55,-0.3 0.55,-0.31 0.55,-0.31 0.55,-0.31 0.55,-0.32 0.55,-0.33 0.55,-0.33 0.55,-0.34 0.55,-0.34 0.55,-0.35 0.55,-0.35 0.55,-0.36 0.55,-0.36 0.55,-0.37 0.55,-0.37 0.55,-0.38 0.55,-0.38 0.55,-0.39 0.55,-0.39 0.55,-0.39 0.55,-0.4 0.55,-0.41 0.55,-0.41 0.55,-0.41 0.55,-0.41 0.55,-0.43 0.55,-0.42 0.55,-0.43 0.55,-0.43 0.55,-0.44 0.55,-0.44 0.55,-0.44 0.55,-0.45 0.55,-0.45 0.55,-0.46 0.55,-0.45 0.55,-0.47 0.55,-0.46 0.55,-0.47 0.55,-0.47 0.55,-0.47 0.55,-0.48 0.55,-0.48 0.56,-0.48 0.55,-0.49 0.55,-0.49 0.55,-0.49 0.55,-0.49 0.55,-0.5 0.55,-0.49 0.55,-0.5 0.55,-0.51 0.55,-0.5 0.55,-0.51 0.55,-0.51 0.55,-0.51 0.55,-0.51 0.55,-0.51 0.55,-0.52 0.55,-0.52 0.55,-0.51 0.55,-0.52 0.55,-0.52 0.55,-0.53 0.55,-0.52 0.55,-0.53 0.55,-0.52 0.55,-0.53 0.55,-0.53 0.55,-0.52 0.55,-0.53 0.55,-0.53 0.55,-0.53 0.55,-0.53 0.55,-0.53 0.55,-0.53 0.55,-0.53 0.55,-0.53 0.55,-0.53 0.55,-0.54 0.55,-0.53 0.55,-0.53 0.55,-0.53 0.55,-0.53 0.55,-0.52 0.55,-0.53 0.55,-0.53 0.55,-0.53 0.56,-0.52 0.55,-0.53 0.55,-0.52 0.55,-0.52 0.55,-0.53 0.55,-0.52 0.55,-0.52 0.55,-0.51 0.55,-0.52 0.55,-0.51 0.55,-0.52 0.55,-0.51 0.55,-0.51 0.55,-0.5 0.55,-0.51 0.55,-0.5 0.55,-0.5 0.55,-0.5 0.55,-0.5 0.55,-0.49 0.55,-0.49 0.55,-0.49 0.55,-0.49 0.55,-0.48 0.55,-0.48 0.55,-0.48 0.55,-0.47 0.55,-0.47 0.55,-0.47 0.55,-0.47 0.55,-0.46 0.55,-0.46 0.55,-0.46 0.55,-0.45 0.55,-0.45 0.55,-0.44 0.55,-0.44 0.55,-0.44 0.55,-0.43 0.55,-0.43 0.55,-0.43 0.55,-0.42 0.55,-0.42 0.55,-0.41 0.55,-0.41 0.55,-0.41 0.56,-0.4 0.55,-0.39 0.55,-0.39 0.55,-0.39 0.55,-0.38 0.55,-0.38 0.55,-0.38 0.55,-0.36 0.55,-0.37 0.55,-0.36 0.55,-0.35 0.55,-0.35 0.55,-0.34 0.55,-0.34 0.55,-0.34 0.55,-0.32 0.55,-0.33 0.55,-0.31 0.55,-0.32 0.55,-0.3 0.55,-0.3 0.55,-0.3 0.55,-0.29 0.55,-0.29 0.55,-0.27 0.55,-0.28 0.55,-0.27 0.55,-0.26 0.55,-0.25 0.55,-0.25 0.55,-0.25 0.55,-0.24 0.55,-0.23 0.55,-0.22 0.55,-0.22 0.55,-0.22 0.55,-0.21 0.55,-0.2 0.55,-0.19 0.55,-0.19 0.55,-0.19 0.55,-0.17 0.55,-0.17 0.55,-0.17 0.55,-0.16 0.56,-0.15 0.55,-0.14 0.55,-0.14 0.55,-0.13 0.55,-0.13 0.55,-0.12 0.55,-0.11 0.55,-0.11 0.55,-0.1 0.55,-0.09 0.55,-0.09 0.55,-0.08 0.55,-0.07 0.55,-0.07 0.55,-0.06 0.55,-0.05 0.55,-0.05 0.55,-0.04 0.55,-0.03 0.55,-0.03 0.55,-0.02 0.55,-0.01 0.55,-0.01 h 0.55 l 0.55,0.01 0.55,0.01 0.55,0.02 0.55,0.03 0.55,0.03 0.55,0.04 0.55,0.05 0.55,0.05 0.55,0.06 0.55,0.07 0.55,0.07 0.55,0.08 0.55,0.09 0.55,0.09 0.55,0.1 0.55,0.11 0.55,0.11 0.55,0.12 0.55,0.13 0.55,0.13 0.55,0.14 0.55,0.14 0.56,0.15 0.55,0.16 0.55,0.17 0.55,0.17 0.55,0.17 0.55,0.19 0.55,0.19 0.55,0.19 0.55,0.2 0.55,0.21 0.55,0.22 0.55,0.22 0.55,0.22 0.55,0.23 0.55,0.24 0.55,0.25 0.55,0.25 0.55,0.25 0.55,0.26 0.55,0.27 0.55,0.28 0.55,0.27 0.55,0.29 0.55,0.29 0.55,0.3 0.55,0.3 0.55,0.3 0.55,0.32 0.55,0.31 0.55,0.33 0.55,0.32 0.55,0.34 0.55,0.34 0.55,0.34 0.55,0.35 0.55,0.35 0.55,0.36 0.55,0.37 0.55,0.36 0.55,0.38 0.55,0.38 0.55,0.38 0.55,0.39 0.55,0.39 0.55,0.39 0.56,0.4 0.55,0.41 0.55,0.41 0.55,0.41 0.55,0.42 0.55,0.42 0.55,0.43 0.55,0.43 0.55,0.43 0.55,0.44 0.55,0.44 0.55,0.44 0.55,0.45 0.55,0.45 0.55,0.46 0.55,0.46 0.55,0.46 0.55,0.47 0.55,0.47 0.55,0.47 0.55,0.47 0.55,0.48 0.55,0.48 0.55,0.48 0.55,0.49 0.55,0.49 0.55,0.49 0.55,0.49 0.55,0.5 0.55,0.5 0.55,0.5 0.55,0.5 0.55,0.51 0.55,0.5 0.55,0.51 0.55,0.51 0.55,0.52 0.55,0.51 0.55,0.52 0.55,0.51 0.55,0.52 0.55,0.52 0.55,0.53 0.55,0.52 0.55,0.52 0.55,0.53 0.56,0.52 0.55,0.53 0.55,0.53 0.55,0.53 0.55,0.52 0.55,0.53 0.55,0.53 0.55,0.53 0.55,0.53 0.55,0.54 0.55,0.53 0.55,0.53 0.55,0.53 0.55,0.53 0.55,0.53 0.55,0.53 0.55,0.53 0.55,0.53 0.55,0.53 0.55,0.52 0.55,0.53 0.55,0.53 0.55,0.52 0.55,0.53 0.55,0.52 0.55,0.53 0.55,0.52 0.55,0.52 0.55,0.51 0.55,0.52 0.55,0.52 0.55,0.51 0.55,0.51 0.55,0.51 0.55,0.51 0.55,0.51 0.55,0.5 0.55,0.51 0.55,0.5 0.55,0.49 0.55,0.5 0.55,0.49 0.55,0.49 0.55,0.49 0.55,0.49 0.56,0.48 0.55,0.48 0.55,0.48 0.55,0.47 0.55,0.47 0.55,0.47 0.55,0.46 0.55,0.47 0.55,0.45 0.55,0.46 0.55,0.45 0.55,0.45 0.55,0.44 0.55,0.44 0.55,0.44 0.55,0.43 0.55,0.43 0.55,0.42 0.55,0.43 0.55,0.41 0.55,0.41 0.55,0.41 0.55,0.41 0.55,0.4 0.55,0.39 0.55,0.39 0.55,0.39 0.55,0.38 0.55,0.38 0.55,0.37 0.55,0.37 0.55,0.36 0.55,0.36 0.55,0.35 0.55,0.35 0.55,0.34 0.55,0.34 0.55,0.33 0.55,0.33 0.55,0.32 0.55,0.31 0.55,0.31 0.55,0.31 0.55,0.3 0.55,0.29 0.56,0.29 0.55,0.29 0.55,0.27 0.55,0.28 0.55,0.26 0.55,0.26 0.55,0.26 0.55,0.25 0.55,0.24 0.55,0.23 0.55,0.24 0.55,0.22 0.55,0.22 0.55,0.21 0.55,0.21 0.55,0.2 0.55,0.19 0.55,0.19 0.55,0.18 0.55,0.18 0.55,0.17 0.55,0.16 0.55,0.15 0.55,0.15 0.55,0.15 0.55,0.13 0.55,0.14 0.55,0.12 0.55,0.12 0.55,0.11 0.55,0.1 0.55,0.1 0.55,0.09 0.55,0.09 0.55,0.07 0.55,0.08 0.55,0.06 0.55,0.06 0.55,0.05 0.55,0.05 0.55,0.03 0.55,0.04 0.55,0.02 0.55,0.02 0.55,0.01 0.55,0.01 0.56,-0.01 h 0.55 l 0.55,-0.02 0.55,-0.02 0.55,-0.03 0.55,-0.03 0.55,-0.05 0.55,-0.04 0.55,-0.06 0.55,-0.06 0.55,-0.07 0.55,-0.07 0.55,-0.08 0.55,-0.09 0.55,-0.1 0.55,-0.1 0.55,-0.11 0.55,-0.11 0.55,-0.12 0.55,-0.13 0.55,-0.13 0.55,-0.14 0.55,-0.15 0.55,-0.15 0.55,-0.16 0.55,-0.17 0.55,-0.17 0.55,-0.18 0.55,-0.18 0.55,-0.19 0.55,-0.2 0.55,-0.2 0.55,-0.21 0.55,-0.22 0.55,-0.22 0.55,-0.23 0.55,-0.23 0.55,-0.24 0.55,-0.25 0.55,-0.25 0.55,-0.26 0.55,-0.26 0.55,-0.27 0.55,-0.27 0.55,-0.28 0.56,-0.29 0.55,-0.29 0.55,-0.3 0.55,-0.3 0.55,-0.31 0.55,-0.31 0.55,-0.32 0.55,-0.33 0.55,-0.33 0.55,-0.33 0.55,-0.34 0.55,-0.35 0.55,-0.35 0.55,-0.35 0.55,-0.36 0.55,-0.37 0.55,-0.37 0.55,-0.37 0.55,-0.38 0.55,-0.38 0.55,-0.39 0.55,-0.4 0.55,-0.39 0.55,-0.4 0.55,-0.41 0.55,-0.41 0.55,-0.42 0.55,-0.41 0.55,-0.43 0.55,-0.42 0.55,-0.44 0.55,-0.43 0.55,-0.44 0.55,-0.44 0.55,-0.45 0.55,-0.45 0.55,-0.45 0.55,-0.45 0.55,-0.46 0.55,-0.47 0.55,-0.46 0.55,-0.47 0.55,-0.48 0.55,-0.47 0.55,-0.48 0.55,-0.48 0.56,-0.48 0.55,-0.49 0.55,-0.49 0.55,-0.49 0.55,-0.5 0.55,-0.49 0.55,-0.5 0.55,-0.5 0.55,-0.51 0.55,-0.5 0.55,-0.51 0.55,-0.51 0.55,-0.51 0.55,-0.52 0.55,-0.51 0.55,-0.52 0.55,-0.51 0.55,-0.52 0.55,-0.52 0.55,-0.53 0.55,-0.52 0.55,-0.52 0.55,-0.53 0.55,-0.52 0.55,-0.53 0.55,-0.53 0.55,-0.53 0.55,-0.53 0.55,-0.53 0.55,-0.53 0.55,-0.53 0.55,-0.53 0.55,-0.53 0.55,-0.53 0.55,-0.53 0.55,-0.53 0.55,-0.53 0.55,-0.53 0.55,-0.53 0.55,-0.53 0.55,-0.53 0.55,-0.53 0.55,-0.53 0.55,-0.52 0.55,-0.53 0.56,-0.53 0.55,-0.52 0.55,-0.52 0.55,-0.53 0.55,-0.52 0.55,-0.52 0.55,-0.51 0.55,-0.52 0.55,-0.52 0.55,-0.51 0.55,-0.51 0.55,-0.51 0.55,-0.51 0.55,-0.51 0.55,-0.5 0.55,-0.5 0.55,-0.5 0.55,-0.5 0.55,-0.49 0.55,-0.5 0.55,-0.49 0.55,-0.48 0.55,-0.49 0.55,-0.48 0.55,-0.48 0.55,-0.48 0.55,-0.47 0.55,-0.47 0.55,-0.47 0.55,-0.46 0.55,-0.46 0.55,-0.46 0.55,-0.45 0.55,-0.45 0.55,-0.45 0.55,-0.44 0.55,-0.44 0.55,-0.44 0.55,-0.43 0.55,-0.43 0.55,-0.42 0.55,-0.42 0.55,-0.42 0.55,-0.41 0.55,-0.4 0.56,-0.41 0.55,-0.4 0.55,-0.39 0.55,-0.39 0.55,-0.38 0.55,-0.38 0.55,-0.38 0.55,-0.37 0.55,-0.37 0.55,-0.36 0.55,-0.35 0.55,-0.36 0.55,-0.34 0.55,-0.34 0.55,-0.34 0.55,-0.33 0.55,-0.33 0.55,-0.32 0.55,-0.31 0.55,-0.31 0.55,-0.3 0.55,-0.3 0.55,-0.3 0.55,-0.28 0.55,-0.29 0.55,-0.27 0.55,-0.27 0.55,-0.27 0.55,-0.26 0.55,-0.25 0.55,-0.25 0.55,-0.24 0.55,-0.23 0.55,-0.23 0.55,-0.23 0.55,-0.21 0.55,-0.21 0.55,-0.21 0.55,-0.2 0.55,-0.19 0.55,-0.19 0.55,-0.18 0.55,-0.17 0.55,-0.17 0.55,-0.16 0.55,-0.15 0.56,-0.15 0.55,-0.14 0.55,-0.14 0.55,-0.13 0.55,-0.12 0.55,-0.12 0.55,-0.1 0.55,-0.11 0.55,-0.09 0.55,-0.09 0.55,-0.09 0.55,-0.07 0.55,-0.07 0.55,-0.07 0.55,-0.05 0.55,-0.05 0.55,-0.05 0.55,-0.03 0.55,-0.03 0.55,-0.03 0.55,-0.01 0.55,-0.01 0.55,-0.01"
           id="path3137" />
      </g>
    </g>
    <g
       id="gnuplot_plot_3"
       fill="none"
       transform="translate(-2.7904955,-180.44198)">
      <title
         id="title3142">gnuplot_plot_3</title>
      <g
         fill="none"
         color="#ffffff"
         stroke="#ffa500"
         stroke-width="1.5"
         stroke-linecap="butt"
         stroke-linejoin="miter"
         id="g3144" />
      <g
         fill="none"
         color="#000000"
         stroke="currentColor"
         stroke-width="1.5"
         stroke-linecap="butt"
         stroke-linejoin="miter"
         id="g3148">
        <path
           stroke="#ff0000"
           stroke-dasharray="7.5, 7.5"
           d="m 164.58,463.22 0.55,-0.53 0.55,-0.53 0.55,-0.53 0.55,-0.53 0.55,-0.53 0.55,-0.53 0.55,-0.53 0.55,-0.53 0.55,-0.53 0.55,-0.54 0.55,-0.53 0.55,-0.53 0.55,-0.53 0.55,-0.53 0.55,-0.53 0.55,-0.53 0.55,-0.53 0.55,-0.53 0.55,-0.53 0.55,-0.53 0.55,-0.53 0.55,-0.54 0.55,-0.53 0.55,-0.53 0.55,-0.53 0.55,-0.53 0.55,-0.53 0.55,-0.53 0.55,-0.53 0.55,-0.53 0.55,-0.53 0.55,-0.53 0.55,-0.53 0.55,-0.54 0.56,-0.53 0.55,-0.53 0.55,-0.53 0.55,-0.53 0.55,-0.53 0.55,-0.53 0.55,-0.53 0.55,-0.53 0.55,-0.53 0.55,-0.53 0.55,-0.54 0.55,-0.53 0.55,-0.53 0.55,-0.53 0.55,-0.53 0.55,-0.53 0.55,-0.53 0.55,-0.53 0.55,-0.53 0.55,-0.53 0.55,-0.53 0.55,-0.53 0.55,-0.54 0.55,-0.53 0.55,-0.53 0.55,-0.53 0.55,-0.53 0.55,-0.53 0.55,-0.53 0.55,-0.53 0.55,-0.53 0.55,-0.53 0.55,-0.53 0.55,-0.53 0.55,-0.54 0.55,-0.53 0.55,-0.53 0.55,-0.53 0.55,-0.53 0.55,-0.53 0.55,-0.53 0.55,-0.53 0.55,-0.53 0.55,-0.53 0.55,-0.53 0.56,-0.53 0.55,-0.54 0.55,-0.53 0.55,-0.53 0.55,-0.53 0.55,-0.53 0.55,-0.53 0.55,-0.53 0.55,-0.53 0.55,-0.53 0.55,-0.53 0.55,-0.53 0.55,-0.54 0.55,-0.53 0.55,-0.53 0.55,-0.53 0.55,-0.53 0.55,-0.53 0.55,-0.53 0.55,-0.53 0.55,-0.53 0.55,-0.53 0.55,-0.53 0.55,-0.53 0.55,-0.54 0.55,-0.53 0.55,-0.53 0.55,-0.53 0.55,-0.53 0.55,-0.53 0.55,-0.53 0.55,-0.53 0.55,-0.53 0.55,-0.53 0.55,-0.53 0.55,-0.53 0.55,-0.54 0.55,-0.53 0.55,-0.53 0.55,-0.53 0.55,-0.53 0.55,-0.53 0.55,-0.53 0.55,-0.53 0.55,-0.53 0.56,-0.53 0.55,-0.53 0.55,-0.53 0.55,-0.54 0.55,-0.53 0.55,-0.53 0.55,-0.53 0.55,-0.53 0.55,-0.53 0.55,-0.53 0.55,-0.53 0.55,-0.53 0.55,-0.53 0.55,-0.53 0.55,-0.54 0.55,-0.53 0.55,-0.53 0.55,-0.53 0.55,-0.53 0.55,-0.53 0.55,-0.53 0.55,-0.53 0.55,-0.53 0.55,-0.53 0.55,-0.53 0.55,-0.53 0.55,-0.54 0.55,-0.53 0.55,-0.53 0.55,-0.53 0.55,-0.53 0.55,-0.53 0.55,-0.53 0.55,-0.53 0.55,-0.53 0.55,-0.53 0.55,-0.53 0.55,-0.53 0.55,-0.54 0.55,-0.53 0.55,-0.53 0.55,-0.53 0.55,-0.53 0.55,-0.53 0.55,-0.53 0.55,-0.53 0.56,-0.53 0.55,-0.53 0.55,-0.53 0.55,-0.54 0.55,-0.53 0.55,-0.53 0.55,-0.53 0.55,-0.53 0.55,-0.53 0.55,-0.53 0.55,-0.53 0.55,-0.53 0.55,-0.53 0.55,-0.53 0.55,-0.53 0.55,-0.54 0.55,-0.53 0.55,-0.53 0.55,-0.53 0.55,-0.53 0.55,-0.53 0.55,-0.53 0.55,-0.53 0.55,-0.53 0.55,-0.53 0.55,-0.53 0.55,-0.53 0.55,-0.54 0.55,-0.53 0.55,-0.53 0.55,-0.53 0.55,-0.53 0.55,-0.53 0.55,-0.53 0.55,-0.53 0.55,-0.53 0.55,-0.53 0.55,-0.53 0.55,-0.53 0.55,-0.54 0.55,-0.53 0.55,-0.53 0.55,-0.53 0.55,-0.53 0.55,-0.53 0.56,-0.53 0.55,-0.53 0.55,-0.53 0.55,-0.53 0.55,-0.53 0.55,-0.54 0.55,-0.53 0.55,-0.53 0.55,-0.53 0.55,-0.53 0.55,-0.53 0.55,-0.53 0.55,-0.53 0.55,-0.53 0.55,-0.53 0.55,-0.53 0.55,-0.53 0.55,-0.54 0.55,-0.53 0.55,-0.53 0.55,-0.53 0.55,-0.53 0.55,-0.53 0.55,-0.53 0.55,-0.53 0.55,-0.53 0.55,-0.53 0.55,-0.53 0.55,-0.53 0.55,-0.54 0.55,-0.53 0.55,-0.53 0.55,-0.53 0.55,-0.53 0.55,-0.53 0.55,-0.53 0.55,-0.53 0.55,-0.53 0.55,-0.53 0.55,-0.53 0.55,-0.53 0.55,-0.54 0.55,-0.53 0.55,-0.53 0.55,-0.53 0.55,-0.53 0.56,-0.53 0.55,-0.53 0.55,-0.53 0.55,-0.53 0.55,-0.53 0.55,-0.53 0.55,-0.54 0.55,-0.53 0.55,-0.53 0.55,-0.53 0.55,-0.53 0.55,-0.53 0.55,-0.53 0.55,-0.53 0.55,-0.53 0.55,-0.53 0.55,-0.53 0.55,-0.53 0.55,-0.54 0.55,-0.53 0.55,-0.53 0.55,-0.53 0.55,-0.53 0.55,-0.53 0.55,-0.53 0.55,-0.53 0.55,-0.53 0.55,-0.53 0.55,-0.53 0.55,-0.53 0.55,-0.54 0.55,-0.53 0.55,-0.53 0.55,-0.53 0.55,-0.53 0.55,-0.53 0.55,-0.53 0.55,-0.53 0.55,-0.53 0.55,-0.53 0.55,-0.53 0.55,-0.53 0.55,-0.54 0.55,-0.53 0.55,-0.53 0.56,-0.53 0.55,-0.53 0.55,-0.53 0.55,-0.53 0.55,-0.53 0.55,-0.53 0.55,-0.53 0.55,-0.53 0.55,-0.54 0.55,-0.53 0.55,-0.53 0.55,-0.53 0.55,-0.53 0.55,-0.53 0.55,-0.53 0.55,-0.53 0.55,-0.53 0.55,-0.53 0.55,-0.53 0.55,-0.53 0.55,-0.54 0.55,-0.53 0.55,-0.53 0.55,-0.53 0.55,-0.53 0.55,-0.53 0.55,-0.53 0.55,-0.53 0.55,-0.53 0.55,-0.53 0.55,-0.53 0.55,-0.53 0.55,-0.54 0.55,-0.53 0.55,-0.53 0.55,-0.53 0.55,-0.53 0.55,-0.53 0.55,-0.53 0.55,-0.53 0.55,-0.53 0.55,-0.53 0.55,-0.53 0.55,-0.54 0.55,-0.53 0.55,-0.53 0.56,-0.53 0.55,-0.53 0.55,-0.53 0.55,-0.53 0.55,-0.53 0.55,-0.53 0.55,-0.53 0.55,-0.53 0.55,-0.53 0.55,-0.54 0.55,-0.53 0.55,-0.53 0.55,-0.53 0.55,-0.53 0.55,-0.53 0.55,-0.53 0.55,-0.53 0.55,-0.53 0.55,-0.53 0.55,-0.53 0.55,-0.53 0.55,-0.54 0.55,-0.53 0.55,-0.53 0.55,-0.53 0.55,-0.53 0.55,-0.53 0.55,-0.53 0.55,-0.53 0.55,-0.53 0.55,-0.53 0.55,-0.53 0.55,-0.53 0.55,-0.54 0.55,-0.53 0.55,-0.53 0.55,-0.53 0.55,-0.53 0.55,-0.53 0.55,-0.53 0.55,-0.53 0.55,-0.53 0.55,-0.53 0.55,-0.53 0.55,-0.54 0.56,-0.53 0.55,-0.53 0.55,-0.53 0.55,-0.53 0.55,-0.53 0.55,-0.53 0.55,-0.53 0.55,-0.53 0.55,-0.53 0.55,-0.53 0.55,-0.53 0.55,-0.54 0.55,-0.53 0.55,-0.53 0.55,-0.53 0.55,-0.53 0.55,-0.53 0.55,-0.53 0.55,-0.53 0.55,-0.53 0.55,-0.53 0.55,-0.53 0.55,-0.53 0.55,-0.54 0.55,-0.53 0.55,-0.53 0.55,-0.53 0.55,-0.53 0.55,-0.53 0.55,-0.53 0.55,-0.53 0.55,-0.53 0.55,-0.53 0.55,-0.53 0.55,-0.53 0.55,-0.54 0.55,-0.53 0.55,-0.53 0.55,-0.53 0.55,-0.53 0.55,-0.53 0.55,-0.53 0.55,-0.53 0.55,-0.53 0.55,-0.53 0.56,-0.53 0.55,-0.54 0.55,-0.53 0.55,-0.53 0.55,-0.53 0.55,-0.53 0.55,-0.53 0.55,-0.53 0.55,-0.53 0.55,-0.53 0.55,-0.53 0.55,-0.53 0.55,-0.53 0.55,-0.54 0.55,-0.53 0.55,-0.53 0.55,-0.53 0.55,-0.53 0.55,-0.53 0.55,-0.53 0.55,-0.53 0.55,-0.53 0.55,-0.53 0.55,-0.53 0.55,-0.53 0.55,-0.54 0.55,-0.53 0.55,-0.53 0.55,-0.53 0.55,-0.53 0.55,-0.53 0.55,-0.53 0.55,-0.53 0.55,-0.53 0.55,-0.53"
           id="path3146" />
      </g>
    </g>
    <g
       id="gnuplot_plot_4"
       fill="none"
       transform="translate(-2.7904955,-180.44198)">
      <title
         id="title3151">gnuplot_plot_4</title>
      <g
         fill="none"
         color="#000000"
         stroke="currentColor"
         stroke-width="1.5"
         stroke-linecap="butt"
         stroke-linejoin="miter"
         id="g3155">
        <path
           stroke="#ff0000"
           stroke-dasharray="7.5, 7.5"
           d="m 20.97,294.41 h 0.55 0.55 0.55 0.55 0.55 0.55 0.55 0.55 0.55 0.55 0.55 0.55 0.55 0.55 0.55 0.55 0.55 0.55 0.55 0.55 0.55 0.55 0.56 0.55 0.55 0.55 0.55 0.55 0.55 0.55 0.55 0.55 0.55 0.55 0.55 0.55 0.55 0.55 0.55 0.55 0.55 0.55 0.55 0.55 0.55 0.55 0.55 0.55 0.55 0.55 0.55 0.55 0.55 0.55 0.55 0.55 0.55 0.55 0.55 0.55 0.55 0.55 0.55 0.55 0.55 0.55 0.55 0.55 0.56 0.55 0.55 0.55 0.55 0.55 0.55 0.55 0.55 0.55 0.55 0.55 0.55 0.55 0.55 0.55 0.55 0.55 0.55 0.55 0.55 0.55 0.55 0.55 0.55 0.55 0.55 0.55 0.55 0.55 0.55 0.55 0.55 0.55 0.55 0.55 0.55 0.55 0.55 0.55 0.55 0.55 0.55 0.55 0.55 0.56 0.55 0.55 0.55 0.55 0.55 0.55 0.55 0.55 0.55 0.55 0.55 0.55 0.55 0.55 0.55 0.55 0.55 0.55 0.55 0.55 0.55 0.55 0.55 0.55 0.55 0.55 0.55 0.55 0.55 0.55 0.55 0.55 0.55 0.55 0.55 0.55 0.55 0.55 0.55 0.55 0.55 0.55 0.55 0.55 0.56 0.55 0.55 0.55 0.55 0.55 0.55 0.55 0.55 0.55 0.55 0.55 0.55 0.55 0.55 0.55 0.55 0.55 0.55 0.55 0.55 0.55 0.55 0.55 0.55 0.55 0.55 0.55 0.55 0.55 0.55 0.55 0.55 0.55 0.55 0.55 0.55 0.55 0.55 0.55 0.55 0.55 0.55 0.55 0.55 0.55 0.56 0.55 0.55 0.55 0.55 0.55 0.55 0.55 0.55 0.55 0.55 0.55 0.55 0.55 0.55 0.55 0.55 0.55 0.55 0.55 0.55 0.55 0.55 0.55 0.55 0.55 0.55 0.55 0.55 0.55 0.55 0.55 0.55 0.55 0.55 0.55 0.55 0.55 0.55 0.55 0.55 0.55 0.55 0.55 0.55 0.56 0.55 0.55 0.55 0.55 0.55 0.55 0.55 0.55 0.55 0.55 0.55 0.55 0.55 0.55 0.55 0.55 0.55 0.55 0.55 0.55 0.55 0.55 0.55 0.55 0.55 0.55 0.55 0.55 0.55 0.55 0.55 0.55 0.55 0.55 0.55 0.55 0.55 0.55 0.55 0.55 0.55 0.55 0.55 0.55 0.55 0.56 0.55 0.55 0.55 0.55 0.55 0.55 0.55 0.55 0.55 0.55 0.55 0.55 0.55 0.55 0.55 0.55 0.55 0.55 0.55 0.55 0.55 0.55 0.55 0.55 0.55 0.55 0.55 0.55 0.55 0.55 0.55 0.55 0.55 0.55 0.55 0.55 0.55 0.55 0.55 0.55 0.55 0.55 0.55 0.55 0.56 0.55 0.55 0.55 0.55 0.55 0.55 0.55 0.55 0.55 0.55 0.55 0.55 0.55 0.55 0.55 0.55 0.55 0.55 0.55 0.55 0.55 0.55 0.55 0.55 0.55 0.55 0.55 0.55 0.55 0.55 0.55 0.55 0.55 0.55 0.55 0.55 0.55 0.55 0.55 0.55 0.55 0.55 0.55 0.55 0.56 0.55 0.55 0.55 0.55 0.55 0.55 0.55 0.55 0.55 0.55 0.55 0.55 0.55 0.55 0.55 0.55 0.55 0.55 0.55 0.55 0.55 0.55 0.55 0.55 0.55 0.55 0.55 0.55 0.55 0.55 0.55 0.55 0.55 0.55 0.55 0.55 0.55 0.55 0.55 0.55 0.55 0.55 0.55 0.55 0.55 0.56 0.55 0.55 0.55 0.55 0.55 0.55 0.55 0.55 0.55 0.55 0.55 0.55 0.55 0.55 0.55 0.55 0.55 0.55 0.55 0.55 0.55 0.55 0.55 0.55 0.55 0.55 0.55 0.55 0.55 0.55 0.55 0.55 0.55 0.55 0.55 0.55 0.55 0.55 0.55 0.55 0.55 0.55 0.55 0.55 0.56 0.55 0.55 0.55 0.55 0.55 0.55 0.55 0.55 0.55 0.55 0.55 0.55 0.55 0.55 0.55 0.55 0.55 0.55 0.55 0.55 0.55 0.55 0.55 0.55 0.55 0.55 0.55 0.55 0.55 0.55 0.55 0.55 0.55 0.55 0.55 0.55 0.55 0.55 0.55 0.55 0.55 0.55 0.55 0.55 0.55 0.56 0.55 0.55 0.55 0.55 0.55 0.55 0.55 0.55 0.55 0.55 0.55 0.55 0.55 0.55 0.55 0.55 0.55 0.55 0.55 0.55 0.55 0.55 0.55 0.55 0.55 0.55 0.55 0.55 0.55 0.55 0.55 0.55 0.55 0.55 0.55 0.55 0.55 0.55 0.55 0.55 0.55 0.55 0.55 0.55 0.56 0.55 0.55 0.55 0.55 0.55 0.55 0.55 0.55 0.55 0.55 0.55 0.55 0.55 0.55 0.55 0.55 0.55 0.55 0.55 0.55 0.55 0.55 0.55 0.55 0.55 0.55 0.55 0.55 0.55 0.55 0.55 0.55 0.55 0.55 0.55 0.55 0.55 0.55 0.55 0.55 0.55 0.55 0.55 0.55 0.55 0.56 0.55 0.55 0.55 0.55 0.55 0.55 0.55 0.55 0.55 0.55 0.55 0.55 0.55 0.55 0.55 0.55 0.55 0.55 0.55 0.55 0.55 0.55 0.55 0.55 0.55 0.55 0.55 0.55 0.55 0.55 0.55 0.55 0.55 0.55 0.55 0.55 0.55 0.55 0.55 0.55 0.55 0.55 0.55 0.55 0.56 0.55 0.55 0.55 0.55 0.55 0.55 0.55 0.55 0.55 0.55 0.55 0.55 0.55 0.55 0.55 0.55 0.55 0.55 0.55 0.55 0.55 0.55 0.55 0.55 0.55 0.55 0.55 0.55 0.55 0.55 0.55 0.55 0.55 0.55 0.55 0.55 0.55 0.55 0.55 0.55 0.55 0.55 0.55 0.55 0.56 0.55 0.55 0.55 0.55 0.55 0.55 0.55 0.55 0.55 0.55 0.55 0.55 0.55 0.55 0.55 0.55 0.55 0.55 0.55 0.55 0.55 0.55 0.55 0.55 0.55 0.55 0.55 0.55 0.55 0.55 0.55 0.55 0.55 0.55 0.55 0.55 0.55 0.55 0.55 0.55 0.55 0.55 0.55 0.55 0.55 0.56 0.55 0.55 0.55 0.55 0.55 0.55 0.55 0.55 0.55 0.55 0.55 0.55 0.55 0.55 0.55 0.55 0.55 0.55 0.55 0.55 0.55 0.55 0.55 0.55 0.55 0.55 0.55 0.55 0.55 0.55 0.55 0.55 0.55 0.55 0.55 0.55 0.55 0.55 0.55 0.55 0.55 0.55 0.55 0.55 0.56 0.55 0.55 0.55 0.55 0.55 0.55 0.55 0.55 0.55 0.55 0.55 0.55 0.55 0.55 0.55 0.55 0.55 0.55 0.55 0.55 0.55 0.55 0.55 0.55 0.55 0.55 0.55 0.55 0.55 0.55 0.55 0.55 0.55 0.55 0.55 0.55 0.55 0.55 0.55 0.55 0.55 0.55 0.55 0.55 0.55 0.56 0.55 0.55 0.55 0.55 0.55 0.55 0.55 0.55 0.55 0.55 0.55 0.55 0.55 0.55 0.55 0.55 0.55 0.55 0.55 0.55 0.55 0.55 0.55 0.55 0.55 0.55 0.55 0.55 0.55 0.55 0.55 0.55 0.55 0.55 0.55 0.55 0.55 0.55 0.55 0.55 0.55 0.55 0.55 0.55 0.56 0.55 0.55 0.55 0.55 0.55 0.55 0.55 0.55 0.55 0.55 0.55 0.55 0.55 0.55 0.55 0.55 0.55 0.55 0.55 0.55 0.55 0.55 0.55 0.55 0.55 0.55 0.55 0.55 0.55 0.55 0.55 0.55 0.55 0.55 0.55 0.55 0.55 0.55 0.55 0.55 0.55 0.55 0.55 0.55 0.56 0.55 0.55 0.55 0.55 0.55 0.55 0.55 0.55 0.55 0.55 0.55 0.55 0.55 0.55 0.55 0.55 0.55 0.55 0.55 0.55 0.55 0.55 0.55 0.55 0.55 0.55 0.55 0.55 0.55 0.55 0.55 0.55 0.55 0.55 0.55 0.55 0.55 0.55 0.55 0.55 0.55 0.55 0.55 0.55 0.55 0.56 0.55 0.55 0.55 0.55 0.55 0.55 0.55 0.55 0.55 0.55 0.55 0.55 0.55 0.55 0.55 0.55 0.55 0.55 0.55 0.55 0.55 0.55"
           id="path3153" />
      </g>
    </g>
    <g
       id="gnuplot_plot_5"
       fill="none"
       transform="translate(-2.7904955,-180.44198)">
      <title
         id="title3158">gnuplot_plot_5</title>
      <g
         fill="none"
         color="#000000"
         stroke="currentColor"
         stroke-width="1.5"
         stroke-linecap="butt"
         stroke-linejoin="miter"
         id="g3162">
        <path
           stroke="#ff0000"
           stroke-dasharray="7.5, 7.5"
           d="m 20.97,378.82 h 0.55 0.55 0.55 0.55 0.55 0.55 0.55 0.55 0.55 0.55 0.55 0.55 0.55 0.55 0.55 0.55 0.55 0.55 0.55 0.55 0.55 0.55 0.56 0.55 0.55 0.55 0.55 0.55 0.55 0.55 0.55 0.55 0.55 0.55 0.55 0.55 0.55 0.55 0.55 0.55 0.55 0.55 0.55 0.55 0.55 0.55 0.55 0.55 0.55 0.55 0.55 0.55 0.55 0.55 0.55 0.55 0.55 0.55 0.55 0.55 0.55 0.55 0.55 0.55 0.55 0.55 0.55 0.55 0.56 0.55 0.55 0.55 0.55 0.55 0.55 0.55 0.55 0.55 0.55 0.55 0.55 0.55 0.55 0.55 0.55 0.55 0.55 0.55 0.55 0.55 0.55 0.55 0.55 0.55 0.55 0.55 0.55 0.55 0.55 0.55 0.55 0.55 0.55 0.55 0.55 0.55 0.55 0.55 0.55 0.55 0.55 0.55 0.55 0.56 0.55 0.55 0.55 0.55 0.55 0.55 0.55 0.55 0.55 0.55 0.55 0.55 0.55 0.55 0.55 0.55 0.55 0.55 0.55 0.55 0.55 0.55 0.55 0.55 0.55 0.55 0.55 0.55 0.55 0.55 0.55 0.55 0.55 0.55 0.55 0.55 0.55 0.55 0.55 0.55 0.55 0.55 0.55 0.55 0.56 0.55 0.55 0.55 0.55 0.55 0.55 0.55 0.55 0.55 0.55 0.55 0.55 0.55 0.55 0.55 0.55 0.55 0.55 0.55 0.55 0.55 0.55 0.55 0.55 0.55 0.55 0.55 0.55 0.55 0.55 0.55 0.55 0.55 0.55 0.55 0.55 0.55 0.55 0.55 0.55 0.55 0.55 0.55 0.55 0.55 0.56 0.55 0.55 0.55 0.55 0.55 0.55 0.55 0.55 0.55 0.55 0.55 0.55 0.55 0.55 0.55 0.55 0.55 0.55 0.55 0.55 0.55 0.55 0.55 0.55 0.55 0.55 0.55 0.55 0.55 0.55 0.55 0.55 0.55 0.55 0.55 0.55 0.55 0.55 0.55 0.55 0.55 0.55 0.55 0.55 0.56 0.55 0.55 0.55 0.55 0.55 0.55 0.55 0.55 0.55 0.55 0.55 0.55 0.55 0.55 0.55 0.55 0.55 0.55 0.55 0.55 0.55 0.55 0.55 0.55 0.55 0.55 0.55 0.55 0.55 0.55 0.55 0.55 0.55 0.55 0.55 0.55 0.55 0.55 0.55 0.55 0.55 0.55 0.55 0.55 0.55 0.56 0.55 0.55 0.55 0.55 0.55 0.55 0.55 0.55 0.55 0.55 0.55 0.55 0.55 0.55 0.55 0.55 0.55 0.55 0.55 0.55 0.55 0.55 0.55 0.55 0.55 0.55 0.55 0.55 0.55 0.55 0.55 0.55 0.55 0.55 0.55 0.55 0.55 0.55 0.55 0.55 0.55 0.55 0.55 0.55 0.56 0.55 0.55 0.55 0.55 0.55 0.55 0.55 0.55 0.55 0.55 0.55 0.55 0.55 0.55 0.55 0.55 0.55 0.55 0.55 0.55 0.55 0.55 0.55 0.55 0.55 0.55 0.55 0.55 0.55 0.55 0.55 0.55 0.55 0.55 0.55 0.55 0.55 0.55 0.55 0.55 0.55 0.55 0.55 0.55 0.56 0.55 0.55 0.55 0.55 0.55 0.55 0.55 0.55 0.55 0.55 0.55 0.55 0.55 0.55 0.55 0.55 0.55 0.55 0.55 0.55 0.55 0.55 0.55 0.55 0.55 0.55 0.55 0.55 0.55 0.55 0.55 0.55 0.55 0.55 0.55 0.55 0.55 0.55 0.55 0.55 0.55 0.55 0.55 0.55 0.55 0.56 0.55 0.55 0.55 0.55 0.55 0.55 0.55 0.55 0.55 0.55 0.55 0.55 0.55 0.55 0.55 0.55 0.55 0.55 0.55 0.55 0.55 0.55 0.55 0.55 0.55 0.55 0.55 0.55 0.55 0.55 0.55 0.55 0.55 0.55 0.55 0.55 0.55 0.55 0.55 0.55 0.55 0.55 0.55 0.55 0.56 0.55 0.55 0.55 0.55 0.55 0.55 0.55 0.55 0.55 0.55 0.55 0.55 0.55 0.55 0.55 0.55 0.55 0.55 0.55 0.55 0.55 0.55 0.55 0.55 0.55 0.55 0.55 0.55 0.55 0.55 0.55 0.55 0.55 0.55 0.55 0.55 0.55 0.55 0.55 0.55 0.55 0.55 0.55 0.55 0.55 0.56 0.55 0.55 0.55 0.55 0.55 0.55 0.55 0.55 0.55 0.55 0.55 0.55 0.55 0.55 0.55 0.55 0.55 0.55 0.55 0.55 0.55 0.55 0.55 0.55 0.55 0.55 0.55 0.55 0.55 0.55 0.55 0.55 0.55 0.55 0.55 0.55 0.55 0.55 0.55 0.55 0.55 0.55 0.55 0.55 0.56 0.55 0.55 0.55 0.55 0.55 0.55 0.55 0.55 0.55 0.55 0.55 0.55 0.55 0.55 0.55 0.55 0.55 0.55 0.55 0.55 0.55 0.55 0.55 0.55 0.55 0.55 0.55 0.55 0.55 0.55 0.55 0.55 0.55 0.55 0.55 0.55 0.55 0.55 0.55 0.55 0.55 0.55 0.55 0.55 0.55 0.56 0.55 0.55 0.55 0.55 0.55 0.55 0.55 0.55 0.55 0.55 0.55 0.55 0.55 0.55 0.55 0.55 0.55 0.55 0.55 0.55 0.55 0.55 0.55 0.55 0.55 0.55 0.55 0.55 0.55 0.55 0.55 0.55 0.55 0.55 0.55 0.55 0.55 0.55 0.55 0.55 0.55 0.55 0.55 0.55 0.56 0.55 0.55 0.55 0.55 0.55 0.55 0.55 0.55 0.55 0.55 0.55 0.55 0.55 0.55 0.55 0.55 0.55 0.55 0.55 0.55 0.55 0.55 0.55 0.55 0.55 0.55 0.55 0.55 0.55 0.55 0.55 0.55 0.55 0.55 0.55 0.55 0.55 0.55 0.55 0.55 0.55 0.55 0.55 0.55 0.56 0.55 0.55 0.55 0.55 0.55 0.55 0.55 0.55 0.55 0.55 0.55 0.55 0.55 0.55 0.55 0.55 0.55 0.55 0.55 0.55 0.55 0.55 0.55 0.55 0.55 0.55 0.55 0.55 0.55 0.55 0.55 0.55 0.55 0.55 0.55 0.55 0.55 0.55 0.55 0.55 0.55 0.55 0.55 0.55 0.55 0.56 0.55 0.55 0.55 0.55 0.55 0.55 0.55 0.55 0.55 0.55 0.55 0.55 0.55 0.55 0.55 0.55 0.55 0.55 0.55 0.55 0.55 0.55 0.55 0.55 0.55 0.55 0.55 0.55 0.55 0.55 0.55 0.55 0.55 0.55 0.55 0.55 0.55 0.55 0.55 0.55 0.55 0.55 0.55 0.55 0.56 0.55 0.55 0.55 0.55 0.55 0.55 0.55 0.55 0.55 0.55 0.55 0.55 0.55 0.55 0.55 0.55 0.55 0.55 0.55 0.55 0.55 0.55 0.55 0.55 0.55 0.55 0.55 0.55 0.55 0.55 0.55 0.55 0.55 0.55 0.55 0.55 0.55 0.55 0.55 0.55 0.55 0.55 0.55 0.55 0.55 0.56 0.55 0.55 0.55 0.55 0.55 0.55 0.55 0.55 0.55 0.55 0.55 0.55 0.55 0.55 0.55 0.55 0.55 0.55 0.55 0.55 0.55 0.55 0.55 0.55 0.55 0.55 0.55 0.55 0.55 0.55 0.55 0.55 0.55 0.55 0.55 0.55 0.55 0.55 0.55 0.55 0.55 0.55 0.55 0.55 0.56 0.55 0.55 0.55 0.55 0.55 0.55 0.55 0.55 0.55 0.55 0.55 0.55 0.55 0.55 0.55 0.55 0.55 0.55 0.55 0.55 0.55 0.55 0.55 0.55 0.55 0.55 0.55 0.55 0.55 0.55 0.55 0.55 0.55 0.55 0.55 0.55 0.55 0.55 0.55 0.55 0.55 0.55 0.55 0.55 0.56 0.55 0.55 0.55 0.55 0.55 0.55 0.55 0.55 0.55 0.55 0.55 0.55 0.55 0.55 0.55 0.55 0.55 0.55 0.55 0.55 0.55 0.55 0.55 0.55 0.55 0.55 0.55 0.55 0.55 0.55 0.55 0.55 0.55 0.55 0.55 0.55 0.55 0.55 0.55 0.55 0.55 0.55 0.55 0.55 0.55 0.56 0.55 0.55 0.55 0.55 0.55 0.55 0.55 0.55 0.55 0.55 0.55 0.55 0.55 0.55 0.55 0.55 0.55 0.55 0.55 0.55 0.55 0.55"
           id="path3160" />
      </g>
    </g>
    <g
       fill="none"
       color="#ffffff"
       stroke="#ff0000"
       stroke-width="2"
       stroke-linecap="butt"
       stroke-linejoin="miter"
       id="g3165" />
    <g
       fill="none"
       color="#000000"
       stroke="currentColor"
       stroke-width="2"
       stroke-linecap="butt"
       stroke-linejoin="miter"
       id="g3167" />
    <g
       fill="none"
       color="#000000"
       stroke="#000000"
       stroke-width="1"
       stroke-linecap="butt"
       stroke-linejoin="miter"
       id="g3169" />
    <g
       fill="none"
       color="#000000"
       stroke="currentColor"
       stroke-width="1"
       stroke-linecap="butt"
       stroke-linejoin="miter"
       id="g3171" />
  </g>
  <metadata
     id="metadata3762">
    <rdf:RDF>
      <cc:Work
         rdf:about="">
        <dc:title>Gnuplot</dc:title>
      </cc:Work>
    </rdf:RDF>
  </metadata>
</svg>
