<?xml version="1.0" encoding="UTF-8" standalone="no"?>
<svg
   width="420"
   height="540"
   viewBox="0 0 420 540"
   version="1.1"
   id="svg3048"
   sodipodi:docname="202304202edit.svg"
   inkscape:version="1.2.1 (9c6d41e4, 2022-07-14)"
   xmlns:inkscape="http://www.inkscape.org/namespaces/inkscape"
   xmlns:sodipodi="http://sodipodi.sourceforge.net/DTD/sodipodi-0.dtd"
   xmlns:xlink="http://www.w3.org/1999/xlink"
   xmlns="http://www.w3.org/2000/svg"
   xmlns:svg="http://www.w3.org/2000/svg"
   xmlns:rdf="http://www.w3.org/1999/02/22-rdf-syntax-ns#"
   xmlns:cc="http://creativecommons.org/ns#"
   xmlns:dc="http://purl.org/dc/elements/1.1/">
  <defs
     id="defs3052" />
  <sodipodi:namedview
     id="namedview3050"
     pagecolor="#ffffff"
     bordercolor="#000000"
     borderopacity="0.25"
     inkscape:showpageshadow="2"
     inkscape:pageopacity="0.0"
     inkscape:pagecheckerboard="0"
     inkscape:deskcolor="#d1d1d1"
     showgrid="false"
     inkscape:zoom="1.601416"
     inkscape:cx="208.87764"
     inkscape:cy="296.30027"
     inkscape:window-width="1390"
     inkscape:window-height="1205"
     inkscape:window-x="0"
     inkscape:window-y="25"
     inkscape:window-maximized="0"
     inkscape:current-layer="g2961" />
  <title
     id="title2757">Gnuplot</title>
  <desc
     id="desc2759">Produced by GNUPLOT 5.4 patchlevel 6 </desc>
  <g
     id="gnuplot_canvas"
     transform="translate(26,34)">
    <defs
       id="defs2789">
      <circle
         id="gpDot"
         r="0.5"
         stroke-width="0.5"
         stroke="currentColor"
         cx="0"
         cy="0" />
      <path
         id="gpPt0"
         stroke-width="0.222"
         stroke="currentColor"
         d="M -1,0 H 1 M 0,-1 v 2" />
      <path
         id="gpPt1"
         stroke-width="0.222"
         stroke="currentColor"
         d="M -1,-1 1,1 M 1,-1 -1,1" />
      <path
         id="gpPt2"
         stroke-width="0.222"
         stroke="currentColor"
         d="M -1,0 H 1 M 0,-1 v 2 m -1,-2 2,2 m -2,0 2,-2" />
      <rect
         id="gpPt3"
         stroke-width="0.222"
         stroke="currentColor"
         x="-1"
         y="-1"
         width="2"
         height="2" />
      <rect
         id="gpPt4"
         stroke-width="0.222"
         stroke="currentColor"
         fill="currentColor"
         x="-1"
         y="-1"
         width="2"
         height="2" />
      <circle
         id="gpPt5"
         stroke-width="0.222"
         stroke="currentColor"
         cx="0"
         cy="0"
         r="1" />
      <use
         xlink:href="#gpPt5"
         id="gpPt6"
         fill="currentColor"
         stroke="none" />
      <path
         id="gpPt7"
         stroke-width="0.222"
         stroke="currentColor"
         d="m 0,-1.33 -1.33,2 h 2.66 z" />
      <use
         xlink:href="#gpPt7"
         id="gpPt8"
         fill="currentColor"
         stroke="none" />
      <use
         xlink:href="#gpPt7"
         id="gpPt9"
         stroke="currentColor"
         transform="scale(-1)" />
      <use
         xlink:href="#gpPt9"
         id="gpPt10"
         fill="currentColor"
         stroke="none" />
      <use
         xlink:href="#gpPt3"
         id="gpPt11"
         stroke="currentColor"
         transform="rotate(45)" />
      <use
         xlink:href="#gpPt11"
         id="gpPt12"
         fill="currentColor"
         stroke="none" />
      <path
         id="gpPt13"
         stroke-width="0.222"
         stroke="currentColor"
         d="M 0,1.33 1.265,0.411 0.782,-1.067 -0.782,-1.076 -1.265,0.411 Z" />
      <use
         xlink:href="#gpPt13"
         id="gpPt14"
         fill="currentColor"
         stroke="none" />
      <filter
         id="textbox"
         filterUnits="objectBoundingBox"
         x="0"
         y="0"
         height="1"
         width="1">
        <feFlood
           flood-color="white"
           flood-opacity="1"
           result="bgnd"
           id="feFlood2779" />
        <feComposite
           in="SourceGraphic"
           in2="bgnd"
           operator="atop"
           id="feComposite2781" />
      </filter>
      <filter
         id="greybox"
         filterUnits="objectBoundingBox"
         x="0"
         y="0"
         height="1"
         width="1">
        <feFlood
           flood-color="lightgrey"
           flood-opacity="1"
           result="grey"
           id="feFlood2784" />
        <feComposite
           in="SourceGraphic"
           in2="grey"
           operator="atop"
           id="feComposite2786" />
      </filter>
    </defs>
    <g
       fill="none"
       color="#ffffff"
       stroke="currentColor"
       stroke-width="1"
       stroke-linecap="butt"
       stroke-linejoin="miter"
       id="g2791" />
    <g
       fill="none"
       color="#000000"
       stroke="currentColor"
       stroke-width="1"
       stroke-linecap="butt"
       stroke-linejoin="miter"
       id="g2801"
       transform="translate(-13.824804,3.0431353)">
      <path
         stroke="#000000"
         d="m 83.74,463.22 h -9"
         id="path2793" />
      <g
         transform="translate(75.35,467.12)"
         stroke="none"
         fill="#000000"
         font-family="'Times New Roman'"
         font-size="12px"
         text-anchor="end"
         id="g2799">
        <text
           id="text2797"><tspan
             font-family="'Times New Roman'"
             id="tspan2795">-4</tspan></text>
      </g>
    </g>
    <g
       fill="none"
       color="#000000"
       stroke="currentColor"
       stroke-width="1"
       stroke-linecap="butt"
       stroke-linejoin="miter"
       id="g2811"
       transform="translate(-13.824804,3.0431353)">
      <path
         stroke="#000000"
         d="m 83.74,435.39 h -4.5 m 4.5,-27.82 h -9"
         id="path2803" />
      <g
         transform="translate(75.35,411.47)"
         stroke="none"
         fill="#000000"
         font-family="'Times New Roman'"
         font-size="12px"
         text-anchor="end"
         id="g2809">
        <text
           id="text2807"><tspan
             font-family="'Times New Roman'"
             id="tspan2805">-3</tspan></text>
      </g>
    </g>
    <g
       fill="none"
       color="#000000"
       stroke="currentColor"
       stroke-width="1"
       stroke-linecap="butt"
       stroke-linejoin="miter"
       id="g2821"
       transform="translate(-13.824804,3.0431353)">
      <path
         stroke="#000000"
         d="m 83.74,379.74 h -4.5 m 4.5,-27.82 h -9"
         id="path2813" />
      <g
         transform="translate(75.35,355.82)"
         stroke="none"
         fill="#000000"
         font-family="'Times New Roman'"
         font-size="12px"
         text-anchor="end"
         id="g2819">
        <text
           id="text2817"><tspan
             font-family="'Times New Roman'"
             id="tspan2815">-2</tspan></text>
      </g>
    </g>
    <g
       fill="none"
       color="#000000"
       stroke="currentColor"
       stroke-width="1"
       stroke-linecap="butt"
       stroke-linejoin="miter"
       id="g2831"
       transform="translate(-13.824804,3.0431353)">
      <path
         stroke="#000000"
         d="m 83.74,324.09 h -4.5 m 4.5,-27.82 h -9"
         id="path2823" />
      <g
         transform="translate(75.35,300.17)"
         stroke="none"
         fill="#000000"
         font-family="'Times New Roman'"
         font-size="12px"
         text-anchor="end"
         id="g2829">
        <text
           id="text2827"><tspan
             font-family="'Times New Roman'"
             id="tspan2825">-1</tspan></text>
      </g>
    </g>
    <g
       fill="none"
       color="#000000"
       stroke="currentColor"
       stroke-width="1"
       stroke-linecap="butt"
       stroke-linejoin="miter"
       id="g2851"
       transform="translate(-13.824804,3.0431353)">
      <path
         stroke="#000000"
         d="m 83.74,212.79 h -4.5 m 4.5,-27.83 h -9"
         id="path2843" />
      <g
         transform="translate(75.35,188.86)"
         stroke="none"
         fill="#000000"
         font-family="'Times New Roman'"
         font-size="12px"
         text-anchor="end"
         id="g2849">
        <text
           id="text2847"><tspan
             font-family="'Times New Roman'"
             id="tspan2845">1</tspan></text>
      </g>
    </g>
    <g
       fill="none"
       color="#000000"
       stroke="currentColor"
       stroke-width="1"
       stroke-linecap="butt"
       stroke-linejoin="miter"
       id="g2861"
       transform="translate(-13.824804,3.0431353)">
      <path
         stroke="#000000"
         d="m 83.74,157.14 h -4.5 m 4.5,-27.83 h -9"
         id="path2853" />
      <g
         transform="translate(75.35,133.21)"
         stroke="none"
         fill="#000000"
         font-family="'Times New Roman'"
         font-size="12px"
         text-anchor="end"
         id="g2859">
        <text
           id="text2857"><tspan
             font-family="'Times New Roman'"
             id="tspan2855">2</tspan></text>
      </g>
    </g>
    <g
       fill="none"
       color="#000000"
       stroke="currentColor"
       stroke-width="1"
       stroke-linecap="butt"
       stroke-linejoin="miter"
       id="g2871"
       transform="translate(-13.824804,3.0431353)">
      <path
         stroke="#000000"
         d="m 83.74,101.49 h -4.5 m 4.5,-27.83 h -9"
         id="path2863" />
      <g
         transform="translate(75.35,77.56)"
         stroke="none"
         fill="#000000"
         font-family="'Times New Roman'"
         font-size="12px"
         text-anchor="end"
         id="g2869">
        <text
           id="text2867"><tspan
             font-family="'Times New Roman'"
             id="tspan2865">3</tspan></text>
      </g>
    </g>
    <g
       fill="none"
       color="#000000"
       stroke="currentColor"
       stroke-width="1"
       stroke-linecap="butt"
       stroke-linejoin="miter"
       id="g2881"
       transform="translate(-13.824804,3.0431353)">
      <path
         stroke="#000000"
         d="m 83.74,45.84 h -4.5 m 4.5,-27.83 h -9"
         id="path2873" />
      <g
         transform="translate(75.35,21.91)"
         stroke="none"
         fill="#000000"
         font-family="'Times New Roman'"
         font-size="12px"
         text-anchor="end"
         id="g2879">
        <text
           id="text2877"><tspan
             font-family="'Times New Roman'"
             id="tspan2875">4</tspan></text>
      </g>
    </g>
    <g
       fill="none"
       color="#000000"
       stroke="currentColor"
       stroke-width="1"
       stroke-linecap="butt"
       stroke-linejoin="miter"
       id="g2911"
       transform="translate(-13.824804,3.0431353)">
      <path
         stroke="#000000"
         d="m 115.13,240.61 v 4.5 m 31.38,-4.5 v 9"
         id="path2903" />
      <g
         transform="translate(146.51,271.51)"
         stroke="none"
         fill="#000000"
         font-family="'Times New Roman'"
         font-size="12px"
         text-anchor="middle"
         id="g2909">
        <text
           id="text2907"><tspan
             font-family="'Times New Roman'"
             id="tspan2905">1</tspan></text>
      </g>
    </g>
    <g
       fill="none"
       color="#000000"
       stroke="currentColor"
       stroke-width="1"
       stroke-linecap="butt"
       stroke-linejoin="miter"
       id="g2921"
       transform="translate(-13.824804,3.0431353)">
      <path
         stroke="#000000"
         d="m 177.9,240.61 v 4.5 m 31.38,-4.5 v 9"
         id="path2913" />
      <g
         transform="translate(209.28,271.51)"
         stroke="none"
         fill="#000000"
         font-family="'Times New Roman'"
         font-size="12px"
         text-anchor="middle"
         id="g2919">
        <text
           id="text2917"><tspan
             font-family="'Times New Roman'"
             id="tspan2915">2</tspan></text>
      </g>
    </g>
    <g
       fill="none"
       color="#000000"
       stroke="currentColor"
       stroke-width="1"
       stroke-linecap="butt"
       stroke-linejoin="miter"
       id="g2931"
       transform="translate(-13.824804,3.0431353)">
      <path
         stroke="#000000"
         d="m 240.67,240.61 v 4.5 m 31.38,-4.5 v 9"
         id="path2923" />
      <g
         transform="translate(272.05,271.51)"
         stroke="none"
         fill="#000000"
         font-family="'Times New Roman'"
         font-size="12px"
         text-anchor="middle"
         id="g2929">
        <text
           id="text2927"><tspan
             font-family="'Times New Roman'"
             id="tspan2925">3</tspan></text>
      </g>
    </g>
    <g
       fill="none"
       color="#000000"
       stroke="currentColor"
       stroke-width="1"
       stroke-linecap="butt"
       stroke-linejoin="miter"
       id="g2941"
       transform="translate(-13.824804,3.0431353)">
      <path
         stroke="#000000"
         d="m 303.44,240.61 v 4.5 m 31.38,-4.5 v 9"
         id="path2933" />
      <g
         transform="translate(334.82,271.51)"
         stroke="none"
         fill="#000000"
         font-family="'Times New Roman'"
         font-size="12px"
         text-anchor="middle"
         id="g2939">
        <text
           id="text2937"><tspan
             font-family="'Times New Roman'"
             id="tspan2935">4</tspan></text>
      </g>
    </g>
    <g
       fill="none"
       color="#000000"
       stroke="currentColor"
       stroke-width="1"
       stroke-linecap="butt"
       stroke-linejoin="miter"
       id="g2943" />
    <g
       fill="none"
       color="#000000"
       stroke="currentColor"
       stroke-width="1"
       stroke-linecap="butt"
       stroke-linejoin="miter"
       id="g2947"
       transform="translate(-13.824804,3.0431353)">
      <path
         stroke="#000000"
         d="M 20.97,240.61 H 334.82"
         id="path2945" />
    </g>
    <g
       fill="none"
       color="#000000"
       stroke="currentColor"
       stroke-width="1"
       stroke-linecap="butt"
       stroke-linejoin="miter"
       id="g2963"
       transform="translate(-13.824804,3.0431353)">
      <path
         stroke="#000000"
         d="M 83.74,463.22 V 18.01"
         id="path2949" />
      <g
         transform="translate(347.37,231.07)"
         stroke="none"
         fill="#000000"
         font-family="'Times New Roman'"
         font-size="22px"
         text-anchor="middle"
         id="g2955">
        <text
           id="text2953"><tspan
             font-family="'Times New Roman'"
             id="tspan2951">$x$</tspan></text>
      </g>
      <g
         transform="translate(102.57,14.03)"
         stroke="none"
         fill="#000000"
         font-family="'Times New Roman'"
         font-size="22px"
         text-anchor="middle"
         id="g2961">
        <text
           id="text2959"><tspan
             font-family="'Times New Roman'"
             id="tspan2957">$y$</tspan></text>
        <text
           id="text2959-5"
           x="-32.269295"
           y="250.81133"><tspan
             font-family="'Times New Roman'"
             id="tspan2957-0">$O$</tspan></text>
      </g>
    </g>
    <g
       fill="none"
       color="#000000"
       stroke="currentColor"
       stroke-width="1"
       stroke-linecap="butt"
       stroke-linejoin="miter"
       id="g2973"
       transform="translate(-13.824804,3.0431353)">
      <g
         stroke="none"
         shape-rendering="crispEdges"
         id="g2967">
        <polygon
           fill="#000000"
           points="79.1,24.24 83.75,6.87 88.4,24.24 83.75,19.59 "
           id="polygon2965" />
      </g>
      <path
         stroke="#000000"
         d="M 83.75,19.59 79.1,24.24 83.75,6.87 88.4,24.24 Z"
         id="path2969" />
      <path
         stroke="#000000"
         d="M 83.75,467.66 V 19.59"
         id="path2971" />
    </g>
    <g
       fill="none"
       color="#000000"
       stroke="currentColor"
       stroke-width="1"
       stroke-linecap="butt"
       stroke-linejoin="miter"
       id="g2983"
       transform="translate(-13.824804,3.0431353)">
      <g
         stroke="none"
         shape-rendering="crispEdges"
         id="g2977">
        <polygon
           fill="#000000"
           points="330.01,235.95 347.38,240.6 330.01,245.25 334.66,240.6 "
           id="polygon2975" />
      </g>
      <path
         stroke="#000000"
         d="m 334.66,240.6 -4.65,-4.65 17.37,4.65 -17.37,4.65 z"
         id="path2979" />
      <path
         stroke="#000000"
         d="M 19.72,240.6 H 334.66"
         id="path2981" />
    </g>
    <g
       fill="none"
       color="#000000"
       stroke="currentColor"
       stroke-width="1"
       stroke-linecap="butt"
       stroke-linejoin="miter"
       id="g2985" />
    <g
       id="gnuplot_plot_1"
       transform="translate(-13.824804,3.0431353)">
      <title
         id="title2987">f(x)</title>
      <g
         fill="none"
         color="#ffffff"
         stroke="#000000"
         stroke-width="2"
         stroke-linecap="butt"
         stroke-linejoin="miter"
         id="g2989" />
      <g
         fill="none"
         color="#000000"
         stroke="currentColor"
         stroke-width="2"
         stroke-linecap="butt"
         stroke-linejoin="miter"
         id="g2995">
        <g
           transform="translate(267.09,39.91)"
           stroke="none"
           fill="#000000"
           font-family="'Times New Roman'"
           font-size="12px"
           text-anchor="end"
           id="g2993">
          <text
             id="text2991">$y=\log_{2}{x}$</text>
        </g>
      </g>
      <g
         fill="none"
         color="#000000"
         stroke="currentColor"
         stroke-width="2"
         stroke-linecap="butt"
         stroke-linejoin="miter"
         id="g2999">
        <path
           stroke="#ff0000"
           d="m 275.48,36.01 h 42.56 m -230.38,427.21 0.23,-4.46 0.31,-5.86 0.32,-5.46 0.31,-5.12 0.31,-4.81 0.32,-4.53 0.31,-4.3 0.32,-4.07 0.31,-3.88 0.31,-3.7 0.32,-3.54 0.31,-3.39 0.32,-3.25 0.31,-3.13 0.32,-3 0.31,-2.9 0.31,-2.8 0.32,-2.7 0.31,-2.62 0.32,-2.53 0.31,-2.46 0.31,-2.38 0.32,-2.31 0.31,-2.25 0.32,-2.19 0.31,-2.13 0.32,-2.08 0.31,-2.02 0.31,-1.97 0.32,-1.93 0.31,-1.88 0.32,-1.83 0.31,-1.8 0.31,-1.76 0.32,-1.72 0.31,-1.68 0.32,-1.65 0.31,-1.61 0.32,-1.59 0.31,-1.55 0.31,-1.52 0.32,-1.5 0.31,-1.47 0.32,-1.44 0.31,-1.41 0.31,-1.4 0.32,-1.36 0.31,-1.35 0.32,-1.32 0.31,-1.3 0.32,-1.28 0.31,-1.26 0.31,-1.24 0.32,-1.23 0.31,-1.2 0.32,-1.19 0.31,-1.16 0.31,-1.16 0.32,-1.13 0.31,-1.12 0.32,-1.11 0.31,-1.09 0.32,-1.07 0.31,-1.06 0.31,-1.05 0.32,-1.03 0.31,-1.02 0.32,-1.01 0.31,-0.99 0.31,-0.99 0.32,-0.97 0.31,-0.96 0.32,-0.94 0.31,-0.94 0.32,-0.93 0.31,-0.91 0.31,-0.91 0.32,-0.89 0.31,-0.89 0.32,-0.87 0.31,-0.87 0.31,-0.86 0.32,-0.84 0.31,-0.84 0.32,-0.83 0.31,-0.83 0.32,-0.81 0.31,-0.8 0.31,-0.8 0.32,-0.79 0.31,-0.78 0.32,-0.78 0.31,-0.76 0.31,-0.76 0.32,-0.76 0.31,-0.74 0.32,-0.74 0.31,-0.73 0.32,-0.73 0.31,-0.72 0.31,-0.71 0.32,-0.7 0.31,-0.7 0.32,-0.7 0.31,-0.69 0.31,-0.68 0.32,-0.68 0.31,-0.67 0.32,-0.66 0.31,-0.66 0.32,-0.66 0.31,-0.64 0.31,-0.65 0.32,-0.64 0.31,-0.63 0.32,-0.63 0.31,-0.62 0.31,-0.62 0.32,-0.62 0.31,-0.61 0.32,-0.6 0.31,-0.6 0.31,-0.6 0.32,-0.59 0.31,-0.59 0.32,-0.58 0.31,-0.58 0.32,-0.57 0.31,-0.57 0.31,-0.57 0.32,-0.56 0.31,-0.56 0.32,-0.56 0.31,-0.55 0.31,-0.55 0.32,-0.54 0.31,-0.54 0.32,-0.53 0.31,-0.54 0.32,-0.53 0.31,-0.52 0.31,-0.53 0.32,-0.51 0.31,-0.52 0.32,-0.51 0.31,-0.51 0.31,-0.51 0.32,-0.5 0.31,-0.5 0.32,-0.5 0.31,-0.49 0.32,-0.49 0.31,-0.49 0.31,-0.48 0.32,-0.48 0.31,-0.48 0.32,-0.48 0.31,-0.47 0.31,-0.47 0.32,-0.47 0.31,-0.46 0.32,-0.47 0.31,-0.46 0.32,-0.45 0.31,-0.46 0.31,-0.45 0.32,-0.45 0.31,-0.45 0.32,-0.44 0.31,-0.44 0.31,-0.44 0.32,-0.44 0.31,-0.43 0.32,-0.44 0.31,-0.43 0.32,-0.42 0.31,-0.43 0.31,-0.42 0.32,-0.42 0.31,-0.42 0.32,-0.42 0.31,-0.41 0.31,-0.41 0.32,-0.42 0.31,-0.4 0.32,-0.41 0.31,-0.4 0.32,-0.41 0.31,-0.4 0.31,-0.39 0.32,-0.4 0.31,-0.39 0.32,-0.4 0.31,-0.39 0.31,-0.38 0.32,-0.39 0.31,-0.39 0.32,-0.38 0.31,-0.38 0.32,-0.38 0.31,-0.38 0.31,-0.37 0.32,-0.38 0.31,-0.37 0.32,-0.37 0.31,-0.37 0.31,-0.37 0.32,-0.36 0.31,-0.36 0.32,-0.37 0.31,-0.36 0.32,-0.36 0.31,-0.35 0.31,-0.36 0.32,-0.35 0.31,-0.36 0.32,-0.35 0.31,-0.35 0.31,-0.34 0.32,-0.35 0.31,-0.35 0.32,-0.34 0.31,-0.34 0.32,-0.34 0.31,-0.34 0.31,-0.34 0.32,-0.34 0.31,-0.33 0.32,-0.33 0.31,-0.34 0.31,-0.33 0.32,-0.33 0.31,-0.32 0.32,-0.33 0.31,-0.33 0.32,-0.32 0.31,-0.32 0.31,-0.33 0.32,-0.32 0.31,-0.31 0.32,-0.32 0.31,-0.32 0.31,-0.31 0.32,-0.32 0.31,-0.31 0.32,-0.31 0.31,-0.31 0.32,-0.31 0.31,-0.31 0.31,-0.31 0.32,-0.3 0.31,-0.31 0.32,-0.3 0.31,-0.3 0.31,-0.3 0.32,-0.3 0.31,-0.3 0.32,-0.3 0.31,-0.3 0.32,-0.29 0.31,-0.3 0.31,-0.29 0.32,-0.29 0.31,-0.29 0.32,-0.29 0.31,-0.29 0.31,-0.29 0.32,-0.29 0.31,-0.28 0.32,-0.29 0.31,-0.28 0.32,-0.29 0.31,-0.28 0.31,-0.28 0.32,-0.28 0.31,-0.28 0.32,-0.28 0.31,-0.27 0.31,-0.28 0.32,-0.27 0.31,-0.28 0.32,-0.27 0.31,-0.27 0.32,-0.28 0.31,-0.27 0.31,-0.27 0.32,-0.26 0.31,-0.27 0.32,-0.27 0.31,-0.27 0.31,-0.26 0.32,-0.27 0.31,-0.26 0.32,-0.26 0.31,-0.26 0.32,-0.26 0.31,-0.26 0.31,-0.26 0.32,-0.26 0.31,-0.26 0.32,-0.26 0.31,-0.25 0.31,-0.26 0.32,-0.25 0.31,-0.26 0.32,-0.25 0.31,-0.25 0.32,-0.25 0.31,-0.25 0.31,-0.25 0.32,-0.25 0.31,-0.25 0.32,-0.25 0.31,-0.24 0.31,-0.25 0.32,-0.24 0.31,-0.25 0.32,-0.24 0.31,-0.24 0.32,-0.24 0.31,-0.25 0.31,-0.24 0.32,-0.24 0.31,-0.24 0.32,-0.23 0.31,-0.24 0.31,-0.24 0.32,-0.24 0.31,-0.23 0.32,-0.24 0.31,-0.23 0.32,-0.23 0.31,-0.24 0.31,-0.23 0.32,-0.23 0.31,-0.23 0.32,-0.23 0.31,-0.23 0.31,-0.23 0.32,-0.23 0.31,-0.23 0.32,-0.22 0.31,-0.23 0.32,-0.23 0.31,-0.22 0.31,-0.22 0.32,-0.23 0.31,-0.22 0.32,-0.22 0.31,-0.23 0.31,-0.22 0.32,-0.22 0.31,-0.22 0.32,-0.22 0.31,-0.22 0.32,-0.22 0.31,-0.21 0.31,-0.22 0.32,-0.22 0.31,-0.21 0.32,-0.22 0.31,-0.21 0.31,-0.22 0.32,-0.21 0.31,-0.21 0.32,-0.22 0.31,-0.21 0.32,-0.21 0.31,-0.21 0.31,-0.21 0.32,-0.21 0.31,-0.21 0.32,-0.21 0.31,-0.21 0.31,-0.21 0.32,-0.2 0.31,-0.21 0.32,-0.21 0.31,-0.2 0.32,-0.21 0.31,-0.2 0.31,-0.2 0.32,-0.21 0.31,-0.2 0.32,-0.2 0.31,-0.2 0.31,-0.21 0.32,-0.2 0.31,-0.2 0.32,-0.2 0.31,-0.2 0.32,-0.2 0.31,-0.19 0.31,-0.2 0.32,-0.2 0.31,-0.2 0.32,-0.19 0.31,-0.2 0.31,-0.19 0.32,-0.2 0.31,-0.19 0.32,-0.2 0.31,-0.19 0.32,-0.19 0.31,-0.2 0.31,-0.19 0.32,-0.19 0.31,-0.19 0.32,-0.19 0.31,-0.19 0.31,-0.19 0.32,-0.19 0.31,-0.19 0.32,-0.19 0.31,-0.19 0.32,-0.19 0.31,-0.18 0.31,-0.19 0.32,-0.19 0.31,-0.18 0.32,-0.19 0.31,-0.18 0.31,-0.19 0.32,-0.18 0.31,-0.19 0.32,-0.18 0.31,-0.18 0.32,-0.19 0.31,-0.18 0.31,-0.18 0.32,-0.18 0.31,-0.18 0.32,-0.18 0.31,-0.18 0.31,-0.18 0.32,-0.18 0.31,-0.18 0.32,-0.18 0.31,-0.18 0.32,-0.17 0.31,-0.18 0.31,-0.18 0.32,-0.18 0.31,-0.17 0.32,-0.18 0.31,-0.17 0.31,-0.18 0.32,-0.17 0.31,-0.18 0.32,-0.17 0.31,-0.17 0.32,-0.18 0.31,-0.17 0.31,-0.17 0.32,-0.17 0.31,-0.18 0.32,-0.17 0.31,-0.17 0.31,-0.17 0.32,-0.17 0.31,-0.17 0.32,-0.17 0.31,-0.17 0.31,-0.17 0.32,-0.17 0.31,-0.16 0.32,-0.17 0.31,-0.17 0.32,-0.17 0.31,-0.16 0.31,-0.17 0.32,-0.16 0.31,-0.17 0.32,-0.17 0.31,-0.16 0.31,-0.16 0.32,-0.17 0.31,-0.16 0.32,-0.17 0.31,-0.16 0.32,-0.16 0.31,-0.17 0.31,-0.16 0.32,-0.16 0.31,-0.16 0.32,-0.16 0.31,-0.16 0.31,-0.16 0.32,-0.16 0.31,-0.16 0.32,-0.16 0.31,-0.16 0.32,-0.16 0.31,-0.16 0.31,-0.16 0.32,-0.16 0.31,-0.16 0.32,-0.15 0.31,-0.16 0.31,-0.16 0.32,-0.15 0.31,-0.16 0.32,-0.16 0.31,-0.15 0.32,-0.16 0.31,-0.15 0.31,-0.16 0.32,-0.15 0.31,-0.16 0.32,-0.15 0.31,-0.15 0.31,-0.16 0.32,-0.15 0.31,-0.15 0.32,-0.16 0.31,-0.15 0.32,-0.15 0.31,-0.15 0.31,-0.15 0.32,-0.15 0.31,-0.15 0.32,-0.15 0.31,-0.15 0.31,-0.15 0.32,-0.15 0.31,-0.15 0.32,-0.15 0.31,-0.15 0.32,-0.15 0.31,-0.15 0.31,-0.15 0.32,-0.14 0.31,-0.15 0.32,-0.15 0.31,-0.14 0.31,-0.15 0.32,-0.15 0.31,-0.14 0.32,-0.15 0.31,-0.15 0.32,-0.14 0.31,-0.15 0.31,-0.14 0.32,-0.14 0.31,-0.15 0.32,-0.14 0.31,-0.15 0.31,-0.14 0.32,-0.14 0.31,-0.15 0.32,-0.14 0.31,-0.14 0.32,-0.14 0.31,-0.15 0.31,-0.14 0.32,-0.14 0.31,-0.14 0.32,-0.14 0.31,-0.14 0.31,-0.14 0.32,-0.14 0.31,-0.14 0.32,-0.14 0.31,-0.14 0.32,-0.14 0.31,-0.14 0.31,-0.14 0.32,-0.14 0.31,-0.13 0.32,-0.14 0.31,-0.14 0.31,-0.14 0.32,-0.14 0.31,-0.13 0.32,-0.14 0.31,-0.14 0.32,-0.13 0.31,-0.14 0.31,-0.13 0.32,-0.14 0.31,-0.14 0.32,-0.13 0.31,-0.14 0.31,-0.13 0.32,-0.13 0.31,-0.14 0.32,-0.13 0.31,-0.14 0.32,-0.13 0.31,-0.13 0.31,-0.14 0.32,-0.13 0.31,-0.13 0.32,-0.14 0.31,-0.13 0.31,-0.13 0.32,-0.13 0.31,-0.13 0.32,-0.14 0.31,-0.13 0.32,-0.13 0.31,-0.13 0.31,-0.13 0.32,-0.13 0.31,-0.13 0.32,-0.13 0.31,-0.13 0.31,-0.13 0.32,-0.13 0.31,-0.13 0.32,-0.13 0.31,-0.13 0.32,-0.12 0.31,-0.13 0.31,-0.13 0.32,-0.13 0.31,-0.13 0.32,-0.12 0.31,-0.13 0.31,-0.13 0.32,-0.12 0.31,-0.13 0.32,-0.13 0.31,-0.12 0.32,-0.13 0.31,-0.13 0.31,-0.12 0.32,-0.13 0.31,-0.12 0.32,-0.13 0.31,-0.12 0.31,-0.13 0.32,-0.12 0.31,-0.13 0.32,-0.12 0.31,-0.12 0.32,-0.13 0.31,-0.12 0.31,-0.13 0.32,-0.12 0.31,-0.12 0.32,-0.12 0.31,-0.13 0.31,-0.12 0.32,-0.12 0.31,-0.12 0.32,-0.13 0.31,-0.12 0.32,-0.12 0.31,-0.12 0.31,-0.12 0.32,-0.12 0.31,-0.12 0.32,-0.12 0.31,-0.12 0.31,-0.12 0.32,-0.12 0.31,-0.12 0.32,-0.12 0.31,-0.12 0.32,-0.12 0.31,-0.12 0.31,-0.12 0.32,-0.12 0.31,-0.12 0.32,-0.12 0.31,-0.12 0.31,-0.11 0.32,-0.12 0.31,-0.12 0.32,-0.12 0.31,-0.11 0.32,-0.12 0.31,-0.12 0.31,-0.12 0.32,-0.11 0.31,-0.12 0.32,-0.11 0.31,-0.12 0.31,-0.12 0.32,-0.11 0.31,-0.12 0.32,-0.11 0.31,-0.12 0.32,-0.12 0.31,-0.11 0.31,-0.12 0.32,-0.11 0.31,-0.11 0.32,-0.12 0.31,-0.11 0.31,-0.12 0.32,-0.11 0.31,-0.11 0.32,-0.12 0.31,-0.11 0.32,-0.12 0.31,-0.11 0.31,-0.11 0.32,-0.11 0.31,-0.12 0.32,-0.11 0.31,-0.11 0.31,-0.11 0.32,-0.12 0.31,-0.11 0.32,-0.11 0.31,-0.11 0.32,-0.11 0.31,-0.11 0.31,-0.11 0.32,-0.12 0.31,-0.11 0.32,-0.11 0.31,-0.11 0.31,-0.11 0.32,-0.11 0.31,-0.11 0.32,-0.11 0.31,-0.11 0.32,-0.11 0.31,-0.11 0.31,-0.11 0.32,-0.11 0.31,-0.1 0.32,-0.11 0.31,-0.11 0.31,-0.11 0.32,-0.11 0.31,-0.11 0.32,-0.1 0.31,-0.11 0.32,-0.11 0.31,-0.11 0.31,-0.11 0.32,-0.1 0.31,-0.11 0.32,-0.11 0.31,-0.1 0.31,-0.11 0.32,-0.11 0.31,-0.1 0.32,-0.11 0.31,-0.11 0.32,-0.1 0.31,-0.11 0.31,-0.11 0.32,-0.1 0.31,-0.11 0.32,-0.1 0.31,-0.11 0.31,-0.1 0.32,-0.11 0.31,-0.1 0.32,-0.11 0.31,-0.1 0.32,-0.11 0.31,-0.1 0.31,-0.1 0.32,-0.11 0.31,-0.1 0.32,-0.11 0.31,-0.1 0.31,-0.1 0.32,-0.11 0.31,-0.1 0.32,-0.1 0.31,-0.11 0.32,-0.1 0.31,-0.1 0.31,-0.1 0.32,-0.11 0.31,-0.1 0.32,-0.1 0.31,-0.1 0.31,-0.1 0.32,-0.11 0.31,-0.1 0.32,-0.1 0.31,-0.1 0.32,-0.1 0.31,-0.1 0.31,-0.1 0.32,-0.11 0.31,-0.1 0.32,-0.1 0.31,-0.1"
           id="path2997" />
      </g>
    </g>
    <g
       id="gnuplot_plot_2"
       transform="translate(-13.824804,3.0431353)">
      <title
         id="title3002">g(x)</title>
      <g
         fill="none"
         color="#000000"
         stroke="currentColor"
         stroke-width="2"
         stroke-linecap="butt"
         stroke-linejoin="miter"
         id="g3008">
        <g
           transform="translate(267.09,57.91)"
           stroke="none"
           fill="#000000"
           font-family="'Times New Roman'"
           font-size="12px"
           text-anchor="end"
           id="g3006">
          <text
             id="text3004">$y=\log_{1/2}{x}$</text>
        </g>
      </g>
      <g
         fill="none"
         color="#000000"
         stroke="currentColor"
         stroke-width="2"
         stroke-linecap="butt"
         stroke-linejoin="miter"
         id="g3012">
        <path
           stroke="#0000ff"
           d="m 275.48,54.01 h 42.56 m -230.38,-36 0.23,4.46 0.31,5.86 0.32,5.46 0.31,5.12 0.31,4.81 0.32,4.53 0.31,4.3 0.32,4.07 0.31,3.88 0.31,3.7 0.32,3.54 0.31,3.39 0.32,3.25 0.31,3.13 0.32,3 0.31,2.9 0.31,2.8 0.32,2.7 0.31,2.62 0.32,2.53 0.31,2.46 0.31,2.38 0.32,2.31 0.31,2.25 0.32,2.19 0.31,2.13 0.32,2.08 0.31,2.02 0.31,1.97 0.32,1.93 0.31,1.88 0.32,1.83 0.31,1.8 0.31,1.76 0.32,1.72 0.31,1.68 0.32,1.65 0.31,1.61 0.32,1.59 0.31,1.55 0.31,1.52 0.32,1.5 0.31,1.47 0.32,1.44 0.31,1.41 0.31,1.4 0.32,1.36 0.31,1.35 0.32,1.32 0.31,1.3 0.32,1.28 0.31,1.26 0.31,1.24 0.32,1.23 0.31,1.2 0.32,1.19 0.31,1.16 0.31,1.16 0.32,1.13 0.31,1.12 0.32,1.11 0.31,1.09 0.32,1.07 0.31,1.06 0.31,1.05 0.32,1.03 0.31,1.02 0.32,1.01 0.31,0.99 0.31,0.99 0.32,0.97 0.31,0.96 0.32,0.94 0.31,0.94 0.32,0.93 0.31,0.91 0.31,0.91 0.32,0.89 0.31,0.89 0.32,0.87 0.31,0.87 0.31,0.86 0.32,0.84 0.31,0.84 0.32,0.83 0.31,0.83 0.32,0.81 0.31,0.8 0.31,0.8 0.32,0.79 0.31,0.78 0.32,0.78 0.31,0.76 0.31,0.76 0.32,0.76 0.31,0.74 0.32,0.74 0.31,0.73 0.32,0.73 0.31,0.72 0.31,0.71 0.32,0.7 0.31,0.7 0.32,0.7 0.31,0.69 0.31,0.68 0.32,0.68 0.31,0.67 0.32,0.66 0.31,0.66 0.32,0.66 0.31,0.64 0.31,0.65 0.32,0.64 0.31,0.63 0.32,0.63 0.31,0.62 0.31,0.62 0.32,0.62 0.31,0.61 0.32,0.6 0.31,0.6 0.31,0.6 0.32,0.59 0.31,0.59 0.32,0.58 0.31,0.58 0.32,0.57 0.31,0.57 0.31,0.57 0.32,0.56 0.31,0.56 0.32,0.56 0.31,0.55 0.31,0.55 0.32,0.54 0.31,0.54 0.32,0.53 0.31,0.54 0.32,0.53 0.31,0.52 0.31,0.53 0.32,0.51 0.31,0.52 0.32,0.51 0.31,0.51 0.31,0.51 0.32,0.5 0.31,0.5 0.32,0.5 0.31,0.49 0.32,0.49 0.31,0.49 0.31,0.48 0.32,0.48 0.31,0.48 0.32,0.48 0.31,0.47 0.31,0.47 0.32,0.47 0.31,0.46 0.32,0.47 0.31,0.46 0.32,0.45 0.31,0.46 0.31,0.45 0.32,0.45 0.31,0.45 0.32,0.44 0.31,0.44 0.31,0.44 0.32,0.44 0.31,0.43 0.32,0.44 0.31,0.43 0.32,0.42 0.31,0.43 0.31,0.42 0.32,0.42 0.31,0.42 0.32,0.42 0.31,0.41 0.31,0.41 0.32,0.42 0.31,0.4 0.32,0.41 0.31,0.4 0.32,0.41 0.31,0.4 0.31,0.39 0.32,0.4 0.31,0.39 0.32,0.4 0.31,0.39 0.31,0.38 0.32,0.39 0.31,0.39 0.32,0.38 0.31,0.38 0.32,0.38 0.31,0.38 0.31,0.37 0.32,0.38 0.31,0.37 0.32,0.37 0.31,0.37 0.31,0.37 0.32,0.36 0.31,0.36 0.32,0.37 0.31,0.36 0.32,0.36 0.31,0.35 0.31,0.36 0.32,0.35 0.31,0.36 0.32,0.35 0.31,0.35 0.31,0.34 0.32,0.35 0.31,0.35 0.32,0.34 0.31,0.34 0.32,0.34 0.31,0.34 0.31,0.34 0.32,0.34 0.31,0.33 0.32,0.33 0.31,0.34 0.31,0.33 0.32,0.33 0.31,0.32 0.32,0.33 0.31,0.33 0.32,0.32 0.31,0.32 0.31,0.33 0.32,0.32 0.31,0.31 0.32,0.32 0.31,0.32 0.31,0.31 0.32,0.32 0.31,0.31 0.32,0.31 0.31,0.31 0.32,0.31 0.31,0.31 0.31,0.31 0.32,0.3 0.31,0.31 0.32,0.3 0.31,0.3 0.31,0.3 0.32,0.3 0.31,0.3 0.32,0.3 0.31,0.3 0.32,0.29 0.31,0.3 0.31,0.29 0.32,0.29 0.31,0.29 0.32,0.29 0.31,0.29 0.31,0.29 0.32,0.29 0.31,0.28 0.32,0.29 0.31,0.28 0.32,0.29 0.31,0.28 0.31,0.28 0.32,0.28 0.31,0.28 0.32,0.28 0.31,0.27 0.31,0.28 0.32,0.27 0.31,0.28 0.32,0.27 0.31,0.27 0.32,0.28 0.31,0.27 0.31,0.27 0.32,0.26 0.31,0.27 0.32,0.27 0.31,0.27 0.31,0.26 0.32,0.27 0.31,0.26 0.32,0.26 0.31,0.26 0.32,0.26 0.31,0.26 0.31,0.26 0.32,0.26 0.31,0.26 0.32,0.26 0.31,0.25 0.31,0.26 0.32,0.25 0.31,0.26 0.32,0.25 0.31,0.25 0.32,0.25 0.31,0.25 0.31,0.25 0.32,0.25 0.31,0.25 0.32,0.25 0.31,0.24 0.31,0.25 0.32,0.24 0.31,0.25 0.32,0.24 0.31,0.24 0.32,0.24 0.31,0.25 0.31,0.24 0.32,0.24 0.31,0.24 0.32,0.23 0.31,0.24 0.31,0.24 0.32,0.24 0.31,0.23 0.32,0.24 0.31,0.23 0.32,0.23 0.31,0.24 0.31,0.23 0.32,0.23 0.31,0.23 0.32,0.23 0.31,0.23 0.31,0.23 0.32,0.23 0.31,0.23 0.32,0.22 0.31,0.23 0.32,0.23 0.31,0.22 0.31,0.22 0.32,0.23 0.31,0.22 0.32,0.22 0.31,0.23 0.31,0.22 0.32,0.22 0.31,0.22 0.32,0.22 0.31,0.22 0.32,0.22 0.31,0.21 0.31,0.22 0.32,0.22 0.31,0.21 0.32,0.22 0.31,0.21 0.31,0.22 0.32,0.21 0.31,0.21 0.32,0.22 0.31,0.21 0.32,0.21 0.31,0.21 0.31,0.21 0.32,0.21 0.31,0.21 0.32,0.21 0.31,0.21 0.31,0.21 0.32,0.2 0.31,0.21 0.32,0.21 0.31,0.2 0.32,0.21 0.31,0.2 0.31,0.2 0.32,0.21 0.31,0.2 0.32,0.2 0.31,0.2 0.31,0.21 0.32,0.2 0.31,0.2 0.32,0.2 0.31,0.2 0.32,0.2 0.31,0.19 0.31,0.2 0.32,0.2 0.31,0.2 0.32,0.19 0.31,0.2 0.31,0.19 0.32,0.2 0.31,0.19 0.32,0.2 0.31,0.19 0.32,0.19 0.31,0.2 0.31,0.19 0.32,0.19 0.31,0.19 0.32,0.19 0.31,0.19 0.31,0.19 0.32,0.19 0.31,0.19 0.32,0.19 0.31,0.19 0.32,0.19 0.31,0.18 0.31,0.19 0.32,0.19 0.31,0.18 0.32,0.19 0.31,0.18 0.31,0.19 0.32,0.18 0.31,0.19 0.32,0.18 0.31,0.18 0.32,0.19 0.31,0.18 0.31,0.18 0.32,0.18 0.31,0.18 0.32,0.18 0.31,0.18 0.31,0.18 0.32,0.18 0.31,0.18 0.32,0.18 0.31,0.18 0.32,0.17 0.31,0.18 0.31,0.18 0.32,0.18 0.31,0.17 0.32,0.18 0.31,0.17 0.31,0.18 0.32,0.17 0.31,0.18 0.32,0.17 0.31,0.17 0.32,0.18 0.31,0.17 0.31,0.17 0.32,0.17 0.31,0.18 0.32,0.17 0.31,0.17 0.31,0.17 0.32,0.17 0.31,0.17 0.32,0.17 0.31,0.17 0.31,0.17 0.32,0.17 0.31,0.16 0.32,0.17 0.31,0.17 0.32,0.17 0.31,0.16 0.31,0.17 0.32,0.16 0.31,0.17 0.32,0.17 0.31,0.16 0.31,0.16 0.32,0.17 0.31,0.16 0.32,0.17 0.31,0.16 0.32,0.16 0.31,0.17 0.31,0.16 0.32,0.16 0.31,0.16 0.32,0.16 0.31,0.16 0.31,0.16 0.32,0.16 0.31,0.16 0.32,0.16 0.31,0.16 0.32,0.16 0.31,0.16 0.31,0.16 0.32,0.16 0.31,0.16 0.32,0.15 0.31,0.16 0.31,0.16 0.32,0.15 0.31,0.16 0.32,0.16 0.31,0.15 0.32,0.16 0.31,0.15 0.31,0.16 0.32,0.15 0.31,0.16 0.32,0.15 0.31,0.15 0.31,0.16 0.32,0.15 0.31,0.15 0.32,0.16 0.31,0.15 0.32,0.15 0.31,0.15 0.31,0.15 0.32,0.15 0.31,0.15 0.32,0.15 0.31,0.15 0.31,0.15 0.32,0.15 0.31,0.15 0.32,0.15 0.31,0.15 0.32,0.15 0.31,0.15 0.31,0.15 0.32,0.14 0.31,0.15 0.32,0.15 0.31,0.14 0.31,0.15 0.32,0.15 0.31,0.14 0.32,0.15 0.31,0.15 0.32,0.14 0.31,0.15 0.31,0.14 0.32,0.14 0.31,0.15 0.32,0.14 0.31,0.15 0.31,0.14 0.32,0.14 0.31,0.15 0.32,0.14 0.31,0.14 0.32,0.14 0.31,0.15 0.31,0.14 0.32,0.14 0.31,0.14 0.32,0.14 0.31,0.14 0.31,0.14 0.32,0.14 0.31,0.14 0.32,0.14 0.31,0.14 0.32,0.14 0.31,0.14 0.31,0.14 0.32,0.14 0.31,0.13 0.32,0.14 0.31,0.14 0.31,0.14 0.32,0.14 0.31,0.13 0.32,0.14 0.31,0.14 0.32,0.13 0.31,0.14 0.31,0.13 0.32,0.14 0.31,0.14 0.32,0.13 0.31,0.14 0.31,0.13 0.32,0.13 0.31,0.14 0.32,0.13 0.31,0.14 0.32,0.13 0.31,0.13 0.31,0.14 0.32,0.13 0.31,0.13 0.32,0.14 0.31,0.13 0.31,0.13 0.32,0.13 0.31,0.13 0.32,0.14 0.31,0.13 0.32,0.13 0.31,0.13 0.31,0.13 0.32,0.13 0.31,0.13 0.32,0.13 0.31,0.13 0.31,0.13 0.32,0.13 0.31,0.13 0.32,0.13 0.31,0.13 0.32,0.12 0.31,0.13 0.31,0.13 0.32,0.13 0.31,0.13 0.32,0.12 0.31,0.13 0.31,0.13 0.32,0.12 0.31,0.13 0.32,0.13 0.31,0.12 0.32,0.13 0.31,0.13 0.31,0.12 0.32,0.13 0.31,0.12 0.32,0.13 0.31,0.12 0.31,0.13 0.32,0.12 0.31,0.13 0.32,0.12 0.31,0.12 0.32,0.13 0.31,0.12 0.31,0.13 0.32,0.12 0.31,0.12 0.32,0.12 0.31,0.13 0.31,0.12 0.32,0.12 0.31,0.12 0.32,0.13 0.31,0.12 0.32,0.12 0.31,0.12 0.31,0.12 0.32,0.12 0.31,0.12 0.32,0.12 0.31,0.12 0.31,0.12 0.32,0.12 0.31,0.12 0.32,0.12 0.31,0.12 0.32,0.12 0.31,0.12 0.31,0.12 0.32,0.12 0.31,0.12 0.32,0.12 0.31,0.12 0.31,0.11 0.32,0.12 0.31,0.12 0.32,0.12 0.31,0.11 0.32,0.12 0.31,0.12 0.31,0.12 0.32,0.11 0.31,0.12 0.32,0.11 0.31,0.12 0.31,0.12 0.32,0.11 0.31,0.12 0.32,0.11 0.31,0.12 0.32,0.12 0.31,0.11 0.31,0.12 0.32,0.11 0.31,0.11 0.32,0.12 0.31,0.11 0.31,0.12 0.32,0.11 0.31,0.11 0.32,0.12 0.31,0.11 0.32,0.12 0.31,0.11 0.31,0.11 0.32,0.11 0.31,0.12 0.32,0.11 0.31,0.11 0.31,0.11 0.32,0.12 0.31,0.11 0.32,0.11 0.31,0.11 0.32,0.11 0.31,0.11 0.31,0.11 0.32,0.12 0.31,0.11 0.32,0.11 0.31,0.11 0.31,0.11 0.32,0.11 0.31,0.11 0.32,0.11 0.31,0.11 0.32,0.11 0.31,0.11 0.31,0.11 0.32,0.11 0.31,0.1 0.32,0.11 0.31,0.11 0.31,0.11 0.32,0.11 0.31,0.11 0.32,0.1 0.31,0.11 0.32,0.11 0.31,0.11 0.31,0.11 0.32,0.1 0.31,0.11 0.32,0.11 0.31,0.1 0.31,0.11 0.32,0.11 0.31,0.1 0.32,0.11 0.31,0.11 0.32,0.1 0.31,0.11 0.31,0.11 0.32,0.1 0.31,0.11 0.32,0.1 0.31,0.11 0.31,0.1 0.32,0.11 0.31,0.1 0.32,0.11 0.31,0.1 0.32,0.11 0.31,0.1 0.31,0.1 0.32,0.11 0.31,0.1 0.32,0.11 0.31,0.1 0.31,0.1 0.32,0.11 0.31,0.1 0.32,0.1 0.31,0.11 0.32,0.1 0.31,0.1 0.31,0.1 0.32,0.11 0.31,0.1 0.32,0.1 0.31,0.1 0.31,0.1 0.32,0.11 0.31,0.1 0.32,0.1 0.31,0.1 0.32,0.1 0.31,0.1 0.31,0.1 0.32,0.11 0.31,0.1 0.32,0.1 0.31,0.1"
           id="path3010" />
      </g>
    </g>
    <g
       id="gnuplot_plot_3"
       transform="translate(-13.824804,3.0431353)">
      <title
         id="title3015">h(x)</title>
      <g
         fill="none"
         color="#000000"
         stroke="currentColor"
         stroke-width="2"
         stroke-linecap="butt"
         stroke-linejoin="miter"
         id="g3021">
        <g
           transform="translate(267.09,75.91)"
           stroke="none"
           fill="#000000"
           font-family="'Times New Roman'"
           font-size="12px"
           text-anchor="end"
           id="g3019">
          <text
             id="text3017">$y=\log_{5}{x}$</text>
        </g>
      </g>
      <g
         fill="none"
         color="#000000"
         stroke="currentColor"
         stroke-width="2"
         stroke-linecap="butt"
         stroke-linejoin="miter"
         id="g3025">
        <path
           stroke="#ff0000"
           stroke-dasharray="10, 10"
           d="m 275.48,72.01 h 42.56 m -234.16,391.21 0.24,-45.74 0.31,-20.96 0.32,-12.95 0.31,-9.41 0.31,-7.38 0.32,-6.08 0.31,-5.17 0.32,-4.5 0.31,-3.98 0.31,-3.57 0.32,-3.23 0.31,-2.96 0.32,-2.72 0.31,-2.53 0.32,-2.35 0.31,-2.2 0.31,-2.08 0.32,-1.95 0.31,-1.85 0.32,-1.75 0.31,-1.68 0.31,-1.59 0.32,-1.52 0.31,-1.46 0.32,-1.4 0.31,-1.35 0.32,-1.29 0.31,-1.25 0.31,-1.21 0.32,-1.16 0.31,-1.13 0.32,-1.09 0.31,-1.06 0.31,-1.02 0.32,-1 0.31,-0.97 0.32,-0.94 0.31,-0.92 0.32,-0.89 0.31,-0.87 0.31,-0.85 0.32,-0.83 0.31,-0.81 0.32,-0.79 0.31,-0.77 0.31,-0.76 0.32,-0.74 0.31,-0.73 0.32,-0.71 0.31,-0.69 0.32,-0.68 0.31,-0.67 0.31,-0.66 0.32,-0.64 0.31,-0.64 0.32,-0.62 0.31,-0.61 0.31,-0.6 0.32,-0.58 0.31,-0.58 0.32,-0.57 0.31,-0.56 0.32,-0.56 0.31,-0.54 0.31,-0.53 0.32,-0.53 0.31,-0.52 0.32,-0.51 0.31,-0.5 0.31,-0.5 0.32,-0.49 0.31,-0.48 0.32,-0.47 0.31,-0.47 0.32,-0.47 0.31,-0.45 0.31,-0.45 0.32,-0.45 0.31,-0.44 0.32,-0.43 0.31,-0.43 0.31,-0.42 0.32,-0.42 0.31,-0.42 0.32,-0.4 0.31,-0.41 0.32,-0.4 0.31,-0.39 0.31,-0.39 0.32,-0.39 0.31,-0.38 0.32,-0.37 0.31,-0.38 0.31,-0.37 0.32,-0.36 0.31,-0.36 0.32,-0.36 0.31,-0.35 0.32,-0.35 0.31,-0.35 0.31,-0.34 0.32,-0.34 0.31,-0.34 0.32,-0.33 0.31,-0.33 0.31,-0.33 0.32,-0.33 0.31,-0.32 0.32,-0.32 0.31,-0.31 0.32,-0.31 0.31,-0.31 0.31,-0.31 0.32,-0.3 0.31,-0.3 0.32,-0.3 0.31,-0.3 0.31,-0.29 0.32,-0.29 0.31,-0.29 0.32,-0.29 0.31,-0.28 0.32,-0.29 0.31,-0.28 0.31,-0.27 0.32,-0.28 0.31,-0.27 0.32,-0.27 0.31,-0.27 0.31,-0.27 0.32,-0.26 0.31,-0.26 0.32,-0.26 0.31,-0.26 0.31,-0.26 0.32,-0.25 0.31,-0.26 0.32,-0.25 0.31,-0.25 0.32,-0.25 0.31,-0.24 0.31,-0.25 0.32,-0.24 0.31,-0.24 0.32,-0.24 0.31,-0.23 0.31,-0.24 0.32,-0.23 0.31,-0.24 0.32,-0.23 0.31,-0.23 0.32,-0.23 0.31,-0.22 0.31,-0.23 0.32,-0.22 0.31,-0.22 0.32,-0.22 0.31,-0.22 0.31,-0.22 0.32,-0.22 0.31,-0.21 0.32,-0.22 0.31,-0.21 0.32,-0.21 0.31,-0.21 0.31,-0.21 0.32,-0.21 0.31,-0.2 0.32,-0.21 0.31,-0.2 0.31,-0.2 0.32,-0.2 0.31,-0.2 0.32,-0.2 0.31,-0.2 0.32,-0.2 0.31,-0.19 0.31,-0.2 0.32,-0.19 0.31,-0.19 0.32,-0.2 0.31,-0.19 0.31,-0.19 0.32,-0.18 0.31,-0.19 0.32,-0.19 0.31,-0.18 0.32,-0.19 0.31,-0.18 0.31,-0.18 0.32,-0.18 0.31,-0.18 0.32,-0.18 0.31,-0.18 0.31,-0.18 0.32,-0.18 0.31,-0.17 0.32,-0.18 0.31,-0.17 0.32,-0.17 0.31,-0.18 0.31,-0.17 0.32,-0.17 0.31,-0.17 0.32,-0.17 0.31,-0.17 0.31,-0.16 0.32,-0.17 0.31,-0.16 0.32,-0.17 0.31,-0.16 0.32,-0.17 0.31,-0.16 0.31,-0.16 0.32,-0.16 0.31,-0.16 0.32,-0.16 0.31,-0.16 0.31,-0.16 0.32,-0.16 0.31,-0.15 0.32,-0.16 0.31,-0.15 0.32,-0.16 0.31,-0.15 0.31,-0.16 0.32,-0.15 0.31,-0.15 0.32,-0.15 0.31,-0.15 0.31,-0.15 0.32,-0.15 0.31,-0.15 0.32,-0.15 0.31,-0.15 0.32,-0.14 0.31,-0.15 0.31,-0.14 0.32,-0.15 0.31,-0.14 0.32,-0.15 0.31,-0.14 0.31,-0.14 0.32,-0.14 0.31,-0.15 0.32,-0.14 0.31,-0.14 0.32,-0.14 0.31,-0.13 0.31,-0.14 0.32,-0.14 0.31,-0.14 0.32,-0.14 0.31,-0.13 0.31,-0.14 0.32,-0.13 0.31,-0.14 0.32,-0.13 0.31,-0.14 0.32,-0.13 0.31,-0.13 0.31,-0.13 0.32,-0.13 0.31,-0.14 0.32,-0.13 0.31,-0.13 0.31,-0.13 0.32,-0.13 0.31,-0.12 0.32,-0.13 0.31,-0.13 0.32,-0.13 0.31,-0.12 0.31,-0.13 0.32,-0.13 0.31,-0.12 0.32,-0.13 0.31,-0.12 0.31,-0.13 0.32,-0.12 0.31,-0.12 0.32,-0.12 0.31,-0.13 0.32,-0.12 0.31,-0.12 0.31,-0.12 0.32,-0.12 0.31,-0.12 0.32,-0.12 0.31,-0.12 0.31,-0.12 0.32,-0.12 0.31,-0.12 0.32,-0.11 0.31,-0.12 0.32,-0.12 0.31,-0.12 0.31,-0.11 0.32,-0.12 0.31,-0.11 0.32,-0.12 0.31,-0.11 0.31,-0.12 0.32,-0.11 0.31,-0.11 0.32,-0.12 0.31,-0.11 0.32,-0.11 0.31,-0.11 0.31,-0.12 0.32,-0.11 0.31,-0.11 0.32,-0.11 0.31,-0.11 0.31,-0.11 0.32,-0.11 0.31,-0.11 0.32,-0.11 0.31,-0.1 0.32,-0.11 0.31,-0.11 0.31,-0.11 0.32,-0.11 0.31,-0.1 0.32,-0.11 0.31,-0.1 0.31,-0.11 0.32,-0.11 0.31,-0.1 0.32,-0.11 0.31,-0.1 0.32,-0.11 0.31,-0.1 0.31,-0.1 0.32,-0.11 0.31,-0.1 0.32,-0.1 0.31,-0.1 0.31,-0.11 0.32,-0.1 0.31,-0.1 0.32,-0.1 0.31,-0.1 0.32,-0.1 0.31,-0.1 0.31,-0.1 0.32,-0.1 0.31,-0.1 0.32,-0.1 0.31,-0.1 0.31,-0.1 0.32,-0.1 0.31,-0.09 0.32,-0.1 0.31,-0.1 0.32,-0.1 0.31,-0.09 0.31,-0.1 0.32,-0.1 0.31,-0.09 0.32,-0.1 0.31,-0.09 0.31,-0.1 0.32,-0.1 0.31,-0.09 0.32,-0.09 0.31,-0.1 0.32,-0.09 0.31,-0.1 0.31,-0.09 0.32,-0.09 0.31,-0.1 0.32,-0.09 0.31,-0.09 0.31,-0.09 0.32,-0.1 0.31,-0.09 0.32,-0.09 0.31,-0.09 0.32,-0.09 0.31,-0.09 0.31,-0.09 0.32,-0.09 0.31,-0.09 0.32,-0.09 0.31,-0.09 0.31,-0.09 0.32,-0.09 0.31,-0.09 0.32,-0.09 0.31,-0.09 0.32,-0.09 0.31,-0.08 0.31,-0.09 0.32,-0.09 0.31,-0.09 0.32,-0.08 0.31,-0.09 0.31,-0.09 0.32,-0.08 0.31,-0.09 0.32,-0.09 0.31,-0.08 0.32,-0.09 0.31,-0.08 0.31,-0.09 0.32,-0.08 0.31,-0.09 0.32,-0.08 0.31,-0.09 0.31,-0.08 0.32,-0.09 0.31,-0.08 0.32,-0.08 0.31,-0.09 0.32,-0.08 0.31,-0.08 0.31,-0.09 0.32,-0.08 0.31,-0.08 0.32,-0.08 0.31,-0.09 0.31,-0.08 0.32,-0.08 0.31,-0.08 0.32,-0.08 0.31,-0.08 0.32,-0.08 0.31,-0.08 0.31,-0.08 0.32,-0.08 0.31,-0.08 0.32,-0.08 0.31,-0.08 0.31,-0.08 0.32,-0.08 0.31,-0.08 0.32,-0.08 0.31,-0.08 0.32,-0.08 0.31,-0.08 0.31,-0.08 0.32,-0.07 0.31,-0.08 0.32,-0.08 0.31,-0.08 0.31,-0.07 0.32,-0.08 0.31,-0.08 0.32,-0.08 0.31,-0.07 0.32,-0.08 0.31,-0.08 0.31,-0.07 0.32,-0.08 0.31,-0.07 0.32,-0.08 0.31,-0.07 0.31,-0.08 0.32,-0.08 0.31,-0.07 0.32,-0.07 0.31,-0.08 0.32,-0.07 0.31,-0.08 0.31,-0.07 0.32,-0.08 0.31,-0.07 0.32,-0.07 0.31,-0.08 0.31,-0.07 0.32,-0.08 0.31,-0.07 0.32,-0.07 0.31,-0.07 0.31,-0.08 0.32,-0.07 0.31,-0.07 0.32,-0.07 0.31,-0.08 0.32,-0.07 0.31,-0.07 0.31,-0.07 0.32,-0.07 0.31,-0.07 0.32,-0.08 0.31,-0.07 0.31,-0.07 0.32,-0.07 0.31,-0.07 0.32,-0.07 0.31,-0.07 0.32,-0.07 0.31,-0.07 0.31,-0.07 0.32,-0.07 0.31,-0.07 0.32,-0.07 0.31,-0.07 0.31,-0.07 0.32,-0.07 0.31,-0.06 0.32,-0.07 0.31,-0.07 0.32,-0.07 0.31,-0.07 0.31,-0.07 0.32,-0.07 0.31,-0.06 0.32,-0.07 0.31,-0.07 0.31,-0.07 0.32,-0.06 0.31,-0.07 0.32,-0.07 0.31,-0.07 0.32,-0.06 0.31,-0.07 0.31,-0.07 0.32,-0.06 0.31,-0.07 0.32,-0.07 0.31,-0.06 0.31,-0.07 0.32,-0.06 0.31,-0.07 0.32,-0.06 0.31,-0.07 0.32,-0.07 0.31,-0.06 0.31,-0.07 0.32,-0.06 0.31,-0.07 0.32,-0.06 0.31,-0.07 0.31,-0.06 0.32,-0.06 0.31,-0.07 0.32,-0.06 0.31,-0.07 0.32,-0.06 0.31,-0.06 0.31,-0.07 0.32,-0.06 0.31,-0.07 0.32,-0.06 0.31,-0.06 0.31,-0.07 0.32,-0.06 0.31,-0.06 0.32,-0.06 0.31,-0.07 0.32,-0.06 0.31,-0.06 0.31,-0.06 0.32,-0.07 0.31,-0.06 0.32,-0.06 0.31,-0.06 0.31,-0.06 0.32,-0.07 0.31,-0.06 0.32,-0.06 0.31,-0.06 0.32,-0.06 0.31,-0.06 0.31,-0.06 0.32,-0.06 0.31,-0.07 0.32,-0.06 0.31,-0.06 0.31,-0.06 0.32,-0.06 0.31,-0.06 0.32,-0.06 0.31,-0.06 0.32,-0.06 0.31,-0.06 0.31,-0.06 0.32,-0.06 0.31,-0.06 0.32,-0.06 0.31,-0.06 0.31,-0.05 0.32,-0.06 0.31,-0.06 0.32,-0.06 0.31,-0.06 0.32,-0.06 0.31,-0.06 0.31,-0.06 0.32,-0.06 0.31,-0.05 0.32,-0.06 0.31,-0.06 0.31,-0.06 0.32,-0.06 0.31,-0.05 0.32,-0.06 0.31,-0.06 0.32,-0.06 0.31,-0.05 0.31,-0.06 0.32,-0.06 0.31,-0.06 0.32,-0.05 0.31,-0.06 0.31,-0.06 0.32,-0.05 0.31,-0.06 0.32,-0.06 0.31,-0.05 0.32,-0.06 0.31,-0.06 0.31,-0.05 0.32,-0.06 0.31,-0.05 0.32,-0.06 0.31,-0.06 0.31,-0.05 0.32,-0.06 0.31,-0.05 0.32,-0.06 0.31,-0.05 0.32,-0.06 0.31,-0.06 0.31,-0.05 0.32,-0.06 0.31,-0.05 0.32,-0.06 0.31,-0.05 0.31,-0.06 0.32,-0.05 0.31,-0.05 0.32,-0.06 0.31,-0.05 0.32,-0.06 0.31,-0.05 0.31,-0.06 0.32,-0.05 0.31,-0.05 0.32,-0.06 0.31,-0.05 0.31,-0.06 0.32,-0.05 0.31,-0.05 0.32,-0.06 0.31,-0.05 0.32,-0.05 0.31,-0.06 0.31,-0.05 0.32,-0.05 0.31,-0.06 0.32,-0.05 0.31,-0.05 0.31,-0.05 0.32,-0.06 0.31,-0.05 0.32,-0.05 0.31,-0.05 0.32,-0.06 0.31,-0.05 0.31,-0.05 0.32,-0.05 0.31,-0.05 0.32,-0.06 0.31,-0.05 0.31,-0.05 0.32,-0.05 0.31,-0.05 0.32,-0.05 0.31,-0.06 0.32,-0.05 0.31,-0.05 0.31,-0.05 0.32,-0.05 0.31,-0.05 0.32,-0.05 0.31,-0.05 0.31,-0.06 0.32,-0.05 0.31,-0.05 0.32,-0.05 0.31,-0.05 0.32,-0.05 0.31,-0.05 0.31,-0.05 0.32,-0.05 0.31,-0.05 0.32,-0.05 0.31,-0.05 0.31,-0.05 0.32,-0.05 0.31,-0.05 0.32,-0.05 0.31,-0.05 0.32,-0.05 0.31,-0.05 0.31,-0.05 0.32,-0.05 0.31,-0.05 0.32,-0.05 0.31,-0.05 0.31,-0.04 0.32,-0.05 0.31,-0.05 0.32,-0.05 0.31,-0.05 0.32,-0.05 0.31,-0.05 0.31,-0.05 0.32,-0.05 0.31,-0.04 0.32,-0.05 0.31,-0.05 0.31,-0.05 0.32,-0.05 0.31,-0.05 0.32,-0.04 0.31,-0.05 0.32,-0.05 0.31,-0.05 0.31,-0.05 0.32,-0.04 0.31,-0.05 0.32,-0.05 0.31,-0.05 0.31,-0.04 0.32,-0.05 0.31,-0.05 0.32,-0.05 0.31,-0.04 0.32,-0.05 0.31,-0.05 0.31,-0.04 0.32,-0.05 0.31,-0.05 0.32,-0.05 0.31,-0.04 0.31,-0.05 0.32,-0.05 0.31,-0.04 0.32,-0.05 0.31,-0.04 0.32,-0.05 0.31,-0.05 0.31,-0.04 0.32,-0.05 0.31,-0.05 0.32,-0.04 0.31,-0.05 0.31,-0.04 0.32,-0.05 0.31,-0.05 0.32,-0.04 0.31,-0.05 0.32,-0.04 0.31,-0.05 0.31,-0.04 0.32,-0.05 0.31,-0.05 0.32,-0.04 0.31,-0.05 0.31,-0.04 0.32,-0.05 0.31,-0.04 0.32,-0.05 0.31,-0.04 0.32,-0.05 0.31,-0.04 0.31,-0.05 0.32,-0.04 0.31,-0.05 0.32,-0.04 0.31,-0.05 0.31,-0.04 0.32,-0.05 0.31,-0.04 0.32,-0.04 0.31,-0.05 0.32,-0.04 0.31,-0.05 0.31,-0.04 0.32,-0.05 0.31,-0.04 0.32,-0.04 0.31,-0.05 0.31,-0.04 0.32,-0.04 0.31,-0.05 0.32,-0.04 0.31,-0.05 0.32,-0.04 0.31,-0.04 0.31,-0.05 0.32,-0.04 0.31,-0.04 0.32,-0.05 0.31,-0.04"
           id="path3023" />
      </g>
    </g>
    <g
       id="gnuplot_plot_4"
       transform="translate(-13.824804,3.0431353)">
      <title
         id="title3028">i(x)</title>
      <g
         fill="none"
         color="#000000"
         stroke="currentColor"
         stroke-width="2"
         stroke-linecap="butt"
         stroke-linejoin="miter"
         id="g3034">
        <g
           transform="translate(267.09,93.91)"
           stroke="none"
           fill="#000000"
           font-family="'Times New Roman'"
           font-size="12px"
           text-anchor="end"
           id="g3032">
          <text
             id="text3030">$y=\log_{1/5}{x}$</text>
        </g>
      </g>
      <g
         fill="none"
         color="#000000"
         stroke="currentColor"
         stroke-width="2"
         stroke-linecap="butt"
         stroke-linejoin="miter"
         id="g3038">
        <path
           stroke="#0000ff"
           stroke-dasharray="10, 10"
           d="m 275.48,90.01 h 42.56 m -234.16,-72 0.24,45.74 0.31,20.96 0.32,12.95 0.31,9.41 0.31,7.38 0.32,6.08 0.31,5.17 0.32,4.5 0.31,3.98 0.31,3.57 0.32,3.23 0.31,2.96 0.32,2.72 0.31,2.53 0.32,2.35 0.31,2.2 0.31,2.08 0.32,1.95 0.31,1.85 0.32,1.75 0.31,1.68 0.31,1.59 0.32,1.52 0.31,1.46 0.32,1.4 0.31,1.35 0.32,1.29 0.31,1.25 0.31,1.21 0.32,1.16 0.31,1.13 0.32,1.09 0.31,1.06 0.31,1.02 0.32,1 0.31,0.97 0.32,0.94 0.31,0.92 0.32,0.89 0.31,0.87 0.31,0.85 0.32,0.83 0.31,0.81 0.32,0.79 0.31,0.77 0.31,0.76 0.32,0.74 0.31,0.73 0.32,0.71 0.31,0.69 0.32,0.68 0.31,0.67 0.31,0.66 0.32,0.64 0.31,0.64 0.32,0.62 0.31,0.61 0.31,0.6 0.32,0.58 0.31,0.58 0.32,0.57 0.31,0.56 0.32,0.56 0.31,0.54 0.31,0.53 0.32,0.53 0.31,0.52 0.32,0.51 0.31,0.5 0.31,0.5 0.32,0.49 0.31,0.48 0.32,0.47 0.31,0.47 0.32,0.47 0.31,0.45 0.31,0.45 0.32,0.45 0.31,0.44 0.32,0.43 0.31,0.43 0.31,0.42 0.32,0.42 0.31,0.42 0.32,0.4 0.31,0.41 0.32,0.4 0.31,0.39 0.31,0.39 0.32,0.39 0.31,0.38 0.32,0.37 0.31,0.38 0.31,0.37 0.32,0.36 0.31,0.36 0.32,0.36 0.31,0.35 0.32,0.35 0.31,0.35 0.31,0.34 0.32,0.34 0.31,0.34 0.32,0.33 0.31,0.33 0.31,0.33 0.32,0.33 0.31,0.32 0.32,0.32 0.31,0.31 0.32,0.31 0.31,0.31 0.31,0.31 0.32,0.3 0.31,0.3 0.32,0.3 0.31,0.3 0.31,0.29 0.32,0.29 0.31,0.29 0.32,0.29 0.31,0.28 0.32,0.29 0.31,0.28 0.31,0.27 0.32,0.28 0.31,0.27 0.32,0.27 0.31,0.27 0.31,0.27 0.32,0.26 0.31,0.26 0.32,0.26 0.31,0.26 0.31,0.26 0.32,0.25 0.31,0.26 0.32,0.25 0.31,0.25 0.32,0.25 0.31,0.24 0.31,0.25 0.32,0.24 0.31,0.24 0.32,0.24 0.31,0.23 0.31,0.24 0.32,0.23 0.31,0.24 0.32,0.23 0.31,0.23 0.32,0.23 0.31,0.22 0.31,0.23 0.32,0.22 0.31,0.22 0.32,0.22 0.31,0.22 0.31,0.22 0.32,0.22 0.31,0.21 0.32,0.22 0.31,0.21 0.32,0.21 0.31,0.21 0.31,0.21 0.32,0.21 0.31,0.2 0.32,0.21 0.31,0.2 0.31,0.2 0.32,0.2 0.31,0.2 0.32,0.2 0.31,0.2 0.32,0.2 0.31,0.19 0.31,0.2 0.32,0.19 0.31,0.19 0.32,0.2 0.31,0.19 0.31,0.19 0.32,0.18 0.31,0.19 0.32,0.19 0.31,0.18 0.32,0.19 0.31,0.18 0.31,0.18 0.32,0.18 0.31,0.18 0.32,0.18 0.31,0.18 0.31,0.18 0.32,0.18 0.31,0.17 0.32,0.18 0.31,0.17 0.32,0.17 0.31,0.18 0.31,0.17 0.32,0.17 0.31,0.17 0.32,0.17 0.31,0.17 0.31,0.16 0.32,0.17 0.31,0.16 0.32,0.17 0.31,0.16 0.32,0.17 0.31,0.16 0.31,0.16 0.32,0.16 0.31,0.16 0.32,0.16 0.31,0.16 0.31,0.16 0.32,0.16 0.31,0.15 0.32,0.16 0.31,0.15 0.32,0.16 0.31,0.15 0.31,0.16 0.32,0.15 0.31,0.15 0.32,0.15 0.31,0.15 0.31,0.15 0.32,0.15 0.31,0.15 0.32,0.15 0.31,0.15 0.32,0.14 0.31,0.15 0.31,0.14 0.32,0.15 0.31,0.14 0.32,0.15 0.31,0.14 0.31,0.14 0.32,0.14 0.31,0.15 0.32,0.14 0.31,0.14 0.32,0.14 0.31,0.13 0.31,0.14 0.32,0.14 0.31,0.14 0.32,0.14 0.31,0.13 0.31,0.14 0.32,0.13 0.31,0.14 0.32,0.13 0.31,0.14 0.32,0.13 0.31,0.13 0.31,0.13 0.32,0.13 0.31,0.14 0.32,0.13 0.31,0.13 0.31,0.13 0.32,0.13 0.31,0.12 0.32,0.13 0.31,0.13 0.32,0.13 0.31,0.12 0.31,0.13 0.32,0.13 0.31,0.12 0.32,0.13 0.31,0.12 0.31,0.13 0.32,0.12 0.31,0.12 0.32,0.12 0.31,0.13 0.32,0.12 0.31,0.12 0.31,0.12 0.32,0.12 0.31,0.12 0.32,0.12 0.31,0.12 0.31,0.12 0.32,0.12 0.31,0.12 0.32,0.11 0.31,0.12 0.32,0.12 0.31,0.12 0.31,0.11 0.32,0.12 0.31,0.11 0.32,0.12 0.31,0.11 0.31,0.12 0.32,0.11 0.31,0.11 0.32,0.12 0.31,0.11 0.32,0.11 0.31,0.11 0.31,0.12 0.32,0.11 0.31,0.11 0.32,0.11 0.31,0.11 0.31,0.11 0.32,0.11 0.31,0.11 0.32,0.11 0.31,0.1 0.32,0.11 0.31,0.11 0.31,0.11 0.32,0.11 0.31,0.1 0.32,0.11 0.31,0.1 0.31,0.11 0.32,0.11 0.31,0.1 0.32,0.11 0.31,0.1 0.32,0.11 0.31,0.1 0.31,0.1 0.32,0.11 0.31,0.1 0.32,0.1 0.31,0.1 0.31,0.11 0.32,0.1 0.31,0.1 0.32,0.1 0.31,0.1 0.32,0.1 0.31,0.1 0.31,0.1 0.32,0.1 0.31,0.1 0.32,0.1 0.31,0.1 0.31,0.1 0.32,0.1 0.31,0.09 0.32,0.1 0.31,0.1 0.32,0.1 0.31,0.09 0.31,0.1 0.32,0.1 0.31,0.09 0.32,0.1 0.31,0.09 0.31,0.1 0.32,0.1 0.31,0.09 0.32,0.09 0.31,0.1 0.32,0.09 0.31,0.1 0.31,0.09 0.32,0.09 0.31,0.1 0.32,0.09 0.31,0.09 0.31,0.09 0.32,0.1 0.31,0.09 0.32,0.09 0.31,0.09 0.32,0.09 0.31,0.09 0.31,0.09 0.32,0.09 0.31,0.09 0.32,0.09 0.31,0.09 0.31,0.09 0.32,0.09 0.31,0.09 0.32,0.09 0.31,0.09 0.32,0.09 0.31,0.08 0.31,0.09 0.32,0.09 0.31,0.09 0.32,0.08 0.31,0.09 0.31,0.09 0.32,0.08 0.31,0.09 0.32,0.09 0.31,0.08 0.32,0.09 0.31,0.08 0.31,0.09 0.32,0.08 0.31,0.09 0.32,0.08 0.31,0.09 0.31,0.08 0.32,0.09 0.31,0.08 0.32,0.08 0.31,0.09 0.32,0.08 0.31,0.08 0.31,0.09 0.32,0.08 0.31,0.08 0.32,0.08 0.31,0.09 0.31,0.08 0.32,0.08 0.31,0.08 0.32,0.08 0.31,0.08 0.32,0.08 0.31,0.08 0.31,0.08 0.32,0.08 0.31,0.08 0.32,0.08 0.31,0.08 0.31,0.08 0.32,0.08 0.31,0.08 0.32,0.08 0.31,0.08 0.32,0.08 0.31,0.08 0.31,0.08 0.32,0.07 0.31,0.08 0.32,0.08 0.31,0.08 0.31,0.07 0.32,0.08 0.31,0.08 0.32,0.08 0.31,0.07 0.32,0.08 0.31,0.08 0.31,0.07 0.32,0.08 0.31,0.07 0.32,0.08 0.31,0.07 0.31,0.08 0.32,0.08 0.31,0.07 0.32,0.07 0.31,0.08 0.32,0.07 0.31,0.08 0.31,0.07 0.32,0.08 0.31,0.07 0.32,0.07 0.31,0.08 0.31,0.07 0.32,0.08 0.31,0.07 0.32,0.07 0.31,0.07 0.31,0.08 0.32,0.07 0.31,0.07 0.32,0.07 0.31,0.08 0.32,0.07 0.31,0.07 0.31,0.07 0.32,0.07 0.31,0.07 0.32,0.08 0.31,0.07 0.31,0.07 0.32,0.07 0.31,0.07 0.32,0.07 0.31,0.07 0.32,0.07 0.31,0.07 0.31,0.07 0.32,0.07 0.31,0.07 0.32,0.07 0.31,0.07 0.31,0.07 0.32,0.07 0.31,0.06 0.32,0.07 0.31,0.07 0.32,0.07 0.31,0.07 0.31,0.07 0.32,0.07 0.31,0.06 0.32,0.07 0.31,0.07 0.31,0.07 0.32,0.06 0.31,0.07 0.32,0.07 0.31,0.07 0.32,0.06 0.31,0.07 0.31,0.07 0.32,0.06 0.31,0.07 0.32,0.07 0.31,0.06 0.31,0.07 0.32,0.06 0.31,0.07 0.32,0.06 0.31,0.07 0.32,0.07 0.31,0.06 0.31,0.07 0.32,0.06 0.31,0.07 0.32,0.06 0.31,0.07 0.31,0.06 0.32,0.06 0.31,0.07 0.32,0.06 0.31,0.07 0.32,0.06 0.31,0.06 0.31,0.07 0.32,0.06 0.31,0.07 0.32,0.06 0.31,0.06 0.31,0.07 0.32,0.06 0.31,0.06 0.32,0.06 0.31,0.07 0.32,0.06 0.31,0.06 0.31,0.06 0.32,0.07 0.31,0.06 0.32,0.06 0.31,0.06 0.31,0.06 0.32,0.07 0.31,0.06 0.32,0.06 0.31,0.06 0.32,0.06 0.31,0.06 0.31,0.06 0.32,0.06 0.31,0.07 0.32,0.06 0.31,0.06 0.31,0.06 0.32,0.06 0.31,0.06 0.32,0.06 0.31,0.06 0.32,0.06 0.31,0.06 0.31,0.06 0.32,0.06 0.31,0.06 0.32,0.06 0.31,0.06 0.31,0.05 0.32,0.06 0.31,0.06 0.32,0.06 0.31,0.06 0.32,0.06 0.31,0.06 0.31,0.06 0.32,0.06 0.31,0.05 0.32,0.06 0.31,0.06 0.31,0.06 0.32,0.06 0.31,0.05 0.32,0.06 0.31,0.06 0.32,0.06 0.31,0.05 0.31,0.06 0.32,0.06 0.31,0.06 0.32,0.05 0.31,0.06 0.31,0.06 0.32,0.05 0.31,0.06 0.32,0.06 0.31,0.05 0.32,0.06 0.31,0.06 0.31,0.05 0.32,0.06 0.31,0.05 0.32,0.06 0.31,0.06 0.31,0.05 0.32,0.06 0.31,0.05 0.32,0.06 0.31,0.05 0.32,0.06 0.31,0.06 0.31,0.05 0.32,0.06 0.31,0.05 0.32,0.06 0.31,0.05 0.31,0.06 0.32,0.05 0.31,0.05 0.32,0.06 0.31,0.05 0.32,0.06 0.31,0.05 0.31,0.06 0.32,0.05 0.31,0.05 0.32,0.06 0.31,0.05 0.31,0.06 0.32,0.05 0.31,0.05 0.32,0.06 0.31,0.05 0.32,0.05 0.31,0.06 0.31,0.05 0.32,0.05 0.31,0.06 0.32,0.05 0.31,0.05 0.31,0.05 0.32,0.06 0.31,0.05 0.32,0.05 0.31,0.05 0.32,0.06 0.31,0.05 0.31,0.05 0.32,0.05 0.31,0.05 0.32,0.06 0.31,0.05 0.31,0.05 0.32,0.05 0.31,0.05 0.32,0.05 0.31,0.06 0.32,0.05 0.31,0.05 0.31,0.05 0.32,0.05 0.31,0.05 0.32,0.05 0.31,0.05 0.31,0.06 0.32,0.05 0.31,0.05 0.32,0.05 0.31,0.05 0.32,0.05 0.31,0.05 0.31,0.05 0.32,0.05 0.31,0.05 0.32,0.05 0.31,0.05 0.31,0.05 0.32,0.05 0.31,0.05 0.32,0.05 0.31,0.05 0.32,0.05 0.31,0.05 0.31,0.05 0.32,0.05 0.31,0.05 0.32,0.05 0.31,0.05 0.31,0.04 0.32,0.05 0.31,0.05 0.32,0.05 0.31,0.05 0.32,0.05 0.31,0.05 0.31,0.05 0.32,0.05 0.31,0.04 0.32,0.05 0.31,0.05 0.31,0.05 0.32,0.05 0.31,0.05 0.32,0.04 0.31,0.05 0.32,0.05 0.31,0.05 0.31,0.05 0.32,0.04 0.31,0.05 0.32,0.05 0.31,0.05 0.31,0.04 0.32,0.05 0.31,0.05 0.32,0.05 0.31,0.04 0.32,0.05 0.31,0.05 0.31,0.04 0.32,0.05 0.31,0.05 0.32,0.05 0.31,0.04 0.31,0.05 0.32,0.05 0.31,0.04 0.32,0.05 0.31,0.04 0.32,0.05 0.31,0.05 0.31,0.04 0.32,0.05 0.31,0.05 0.32,0.04 0.31,0.05 0.31,0.04 0.32,0.05 0.31,0.05 0.32,0.04 0.31,0.05 0.32,0.04 0.31,0.05 0.31,0.04 0.32,0.05 0.31,0.05 0.32,0.04 0.31,0.05 0.31,0.04 0.32,0.05 0.31,0.04 0.32,0.05 0.31,0.04 0.32,0.05 0.31,0.04 0.31,0.05 0.32,0.04 0.31,0.05 0.32,0.04 0.31,0.05 0.31,0.04 0.32,0.05 0.31,0.04 0.32,0.04 0.31,0.05 0.32,0.04 0.31,0.05 0.31,0.04 0.32,0.05 0.31,0.04 0.32,0.04 0.31,0.05 0.31,0.04 0.32,0.04 0.31,0.05 0.32,0.04 0.31,0.05 0.32,0.04 0.31,0.04 0.31,0.05 0.32,0.04 0.31,0.04 0.32,0.05 0.31,0.04"
           id="path3036" />
      </g>
    </g>
    <g
       fill="none"
       color="#000000"
       stroke="currentColor"
       stroke-width="2"
       stroke-linecap="butt"
       stroke-linejoin="miter"
       id="g3041" />
    <g
       fill="none"
       color="#000000"
       stroke="#000000"
       stroke-width="1"
       stroke-linecap="butt"
       stroke-linejoin="miter"
       id="g3043" />
    <g
       fill="none"
       color="#000000"
       stroke="currentColor"
       stroke-width="1"
       stroke-linecap="butt"
       stroke-linejoin="miter"
       id="g3045" />
  </g>
  <metadata
     id="metadata3534">
    <rdf:RDF>
      <cc:Work
         rdf:about="">
        <dc:title>Gnuplot</dc:title>
      </cc:Work>
    </rdf:RDF>
  </metadata>
</svg>
